<svg xmlns="http://www.w3.org/2000/svg" viewBox="0 0 1228.83 529.75"><defs><style>.cls-1{fill:#5196f9;}.cls-2{fill:#267cf8;}.cls-3{fill:#fefeff;}.cls-4{fill:#74abfa;}.cls-5{fill:#1a6ef4;}.cls-6{fill:#0065f7;}</style></defs><g id="Layer_2" data-name="Layer 2"><g id="Layer_1-2" data-name="Layer 1"><path class="cls-1" d="M775.42,59.77l.49-.83"/><path class="cls-1" d="M479,56.15c-1.68,0-3.36,0-5,0h0c-1.68,0-3.36,0-5,0s-1.94.28-2,2c-.05,2.95,0,5.91,0,8.87,0,.56,0,1.12,0,1.68-.11,1.5-.34,1.74-1.93,1.8-1.36.06-2.72.06-4.08,0-1.69-.08-2.05-.44-2.09-2.22-.06-2.88,0-5.75,0-8.63,0-3.49,0-3.5-3.39-3.5-2.8,0-5.6,0-8.4,0-1.85,0-2.08-.27-2.14-2.08,0-1.35,0-2.72,0-4.07.06-1.67.29-1.92,2-2,2.88,0,5.76,0,8.64,0,3.24,0,3.25,0,3.26-3.15,0-2.8,0-5.6,0-8.4,0-2.13.24-2.33,2.33-2.38,1.28,0,2.56,0,3.84,0,1.66.08,1.91.3,1.94,2,.05,2.88,0,5.76,0,8.64C467,48,467,48,470.12,48c3,0,5.92,0,8.88,0,2.11,0,2.3.24,2.35,2.36q0,1.68,0,3.36C481.3,55.9,481.12,56.1,479,56.15Zm122.55,8.11c-2.72,0-5.43,0-8.14-.05a2.47,2.47,0,0,1-1.59-1c-2.52-2.67-5-5.36-7.54-8a1.56,1.56,0,0,1,.1-2.49l8.14-8.13a2.39,2.39,0,0,1,1.69-.81c2.77,0,5.55,0,8.33,0,.08.19.17.38.26.58-2.71,2.7-5.4,5.4-8.12,8.09-1.56,1.53-1.59,1.53,0,3.11,2,2,4.06,4.07,6.09,6.12A13.15,13.15,0,0,1,602,63.07C602.43,63.63,602.42,64.24,601.59,64.26Zm5.37,0a3,3,0,0,1-2.09-1c-2.8-2.73-5.12-5.89-8-8.53-.75-.69-.61-1.37.07-2L605,44.59a2.64,2.64,0,0,1,1.91-.86h8.49c.36.79-.13,1.07-.45,1.37-2.49,2.36-4.69,5-7.43,7.1-1.54,1.18-1.54,1.64-.2,3,1.78,1.83,3.59,3.63,5.4,5.43a12.48,12.48,0,0,1,2.64,3.63Zm21,0c-2.81,0-5.71.11-8.62-.08a2.16,2.16,0,0,1-1.41-.83q-4.11-4.34-8.2-8.68a1.19,1.19,0,0,1,0-1.88l8.47-8.44a2.67,2.67,0,0,1,2-.67h6.7c.46,0,1-.09,1.28.41.33.66-.29,1-.66,1.38-1.94,1.89-3.85,3.79-5.9,5.58-3.46,3-2.78,2.66-.25,5.22a88.85,88.85,0,0,1,6.33,6.83A1,1,0,0,1,628,64.29Zm13,0c-2.77,0-5.54,0-8.31,0a2.82,2.82,0,0,1-1.86-1c-2.9-2.63-5.26-5.77-8-8.52a1.27,1.27,0,0,1,0-2.06l8.3-8.27a2.64,2.64,0,0,1,2-.75c2.31,0,4.63,0,6.94,0,.46,0,1-.06,1.22.5s-.31.86-.62,1.2c-1.69,1.81-3.76,3.19-5.47,5-3.74,4-3.75,2.78,0,6.67,2.08,2.18,4.07,4.44,6.1,6.67C641.12,63.93,641.05,64.1,641,64.28Zm6.08-8.17c2.41,2.5,4.73,5.1,7.09,7.65l-.24.53h-8.1a3.06,3.06,0,0,1-2.09-1c-2.86-2.66-5.34-5.68-8-8.52a1.28,1.28,0,0,1,.08-2.06c2.72-2.69,5.42-5.4,8.13-8.11a2.88,2.88,0,0,1,2.15-.87h6.7c.53,0,1.25-.13,1.41.56s-.43,1-.87,1.33c-2.36,1.67-4.2,3.9-6.26,5.89C644.59,53.86,644.69,53.64,647.06,56.11Z"/><path class="cls-1" d="M862.87,6.1V5.59c0-.46-.09-1,.44-1.27s.89.2,1.21.52c2.21,2.21,4.47,4.36,6.56,6.67,1,1.13,2,2.28,3.06,3.37,5.94,6,11.4,12.49,16.76,19,1.62,2,3.23,4,4.83,6,.25.31.51.62.28,1.09-.64.42-1.22,0-1.8-.19a76.8,76.8,0,0,0-15.5-2.91c-10.81-1-21.13,1-31.26,4.52-3.19,1.1-3.25,1.28-1.61,4.15,4.5,7.91,9.06,15.8,13.6,23.69l4.77,8.31c1,1.69,1.12,1.8,3.07,1.35a27.11,27.11,0,0,1,12.35,0c2.1.49,2.57.19,3.66-1.69l15.49-26.48c.48-.82.93-1.67,1.42-2.5,1-1.68,1.42-1.72,2.51-.2,2.22,3.12,4.41,6.27,6.61,9.41a8,8,0,0,0,1.65,2c1.52-1.67,2.37-3.76,3.52-5.67.33-.54.67-1.09,1-1.62a1.35,1.35,0,0,1,2.23-.34,86.07,86.07,0,0,1,8.15,7.36,71.44,71.44,0,0,1,19.58,40.7c.3,2.21.26,2.23-2.05,2.27l-7.66.1a7.42,7.42,0,0,0,1,2.69q2.21,4.65,4.39,9.32a11,11,0,0,1,.57,1.58.8.8,0,0,1-.8,1.15c-.71.06-1.44.06-2.15.06l-31.67,0c-3.21,0-3.4.07-4.3,3a26.09,26.09,0,0,1-4.79,8.22c-3.1,4-2.89,2.66-.47,6.91q4.5,7.92,9,15.84c2.87,5.08,5.72,10.17,8.61,15.23,1,1.75,1.53,1.88,3.17.55a79.86,79.86,0,0,0,9.93-9.35,73.58,73.58,0,0,0,11-16.8A71.62,71.62,0,0,0,944,128.11c.2-.83.47-1.64.79-2.71a6.38,6.38,0,0,1,2,3.18,369.34,369.34,0,0,1,14,43.32,2.19,2.19,0,0,1,.1,1.49c-1.22.06-2.1-.7-3-1.23-2.08-1.18-4.1-2.48-6.15-3.73-1.61-1-2.35-1-3.47.49-2.24,2.92-4.76,5.6-7.26,8.28a63.33,63.33,0,0,1-5.14,4.66c-.65.57-1.44,1-1.81,1.82a1,1,0,0,0,.07.25c0,.07.1.16.16.16,9.82.31,19.65.09,29.48.12-.58-2.4-1.14-4.82-1.73-7.22-.27-1.11-.36-2.06,1.09-2.42.93-.23,1.34-1.06,1.79-1.82,2.49-4.28,5-8.55,7.51-12.82.21-.34.43-.68.61-1,1.13-2.15,1-2.9-1.09-4.11-3-1.74-6-3.43-8.92-5.16-2.28-1.33-2.34-1.62-1.52-4,2.35-6.79,4.66-13.6,5.69-20.76.06-.39.23-.77.26-1.17.1-1.43.92-1.85,2.25-1.83,3,.06,6.08,0,9.12,0,.72,0,1.44,0,2.16,0,2-.09,2.39-.44,2.43-2.42,0-2.71,0-5.43,0-8.15a30.61,30.61,0,0,1,.38-6.69,6.19,6.19,0,0,0,0-1.43c0-2.54-.75-3.31-3.28-3.36-2.71,0-5.43,0-8.15,0-.48,0-1,0-1.44,0-3.18,0-3.57-.34-3.88-3.48s-1.67-6.16-2.15-9.33a52.59,52.59,0,0,0-3.36-11.23c-.93-2.35-.85-2.59,1.29-3.8,2.92-1.66,5.85-3.28,8.79-4.91,2.35-1.31,2.56-2.08,1.23-4.36q-4-6.84-7.94-13.68c-1.25-2.18-2.09-2.47-4.23-1.26-3,1.68-6,3.42-8.93,5.14-2,1.16-2.36,1.12-3.8-.63a109.62,109.62,0,0,0-8.39-9.52c-2.3-2.22-4.68-4.34-7.17-6.34-1.86-1.5-2-2.18-.8-4.27,1.76-3,3.58-6,5.36-9.08,1.07-1.82.94-2.43-.86-3.48q-7.24-4.24-14.52-8.41c-1.9-1.08-2.78-.76-3.88,1.17-1.71,3-3.37,6-5.15,8.92-1.23,2-1.69,2-3.93,1.12a93.2,93.2,0,0,0-20.29-5.59c-.62-.1-1.25-.23-1.87-.39A1.72,1.72,0,0,1,885,14.75a15.41,15.41,0,0,1-.17-2.86,47.62,47.62,0,0,0-.3-9.55,2,2,0,0,0-1.71-2A8.17,8.17,0,0,0,879,.15a20.7,20.7,0,0,1-6.43,0,67.91,67.91,0,0,0-7.42-.09c-1.6,0-2.4.88-2.55,2.78m40.27,41.74c-.26.82-.49,1.74-1.38,2.09-.51.2-.83-.36-1.09-.73-.87-1.2-2-2.21-2.47-3.69,1.58-.11,2.86.75,4.26,1.26C902.62,43.67,903,44,902.84,44.58Zm42.93,75.32c-.59.82.23,2.71-1.08,2.87-1,.12-1-1.74-1.53-2.71-.25-.51-.7-1.23,0-1.73a2.07,2.07,0,0,1,2.06,0C945.84,118.57,945.82,119.17,945.77,119.9Z"/><path class="cls-2" d="M1114.65,438.44c-.48,2.95-1.87,5.59-2.8,8.39-.39,1.18-.89,2.33-1.43,3.74a3.5,3.5,0,0,0,2.18-1.45c5.5-5.48,11-10.94,16.44-16.47a5.41,5.41,0,0,1,4.21-1.79c9.28.07,18.55,0,27.83,0,.76,0,1.82-.36,2.19.48s-.67,1.33-1.19,1.86c-4.57,4.59-9,9.33-13.8,13.68-5.27,4.8-10.13,10-15.27,14.9-.4.39-.8.78-1.18,1.19-1.3,1.38-1.33,1.53,0,2.91,4.46,4.47,8.67,9.18,13.1,13.67,6.23,6.31,12.25,12.82,18.35,19.25a3.1,3.1,0,0,1,.37.61c-.43.76-1.14.48-1.72.48-9.84,0-19.67,0-29.51,0a3.64,3.64,0,0,1-3.45-1.68,15.4,15.4,0,0,0-1.93-2.12c-3.69-3.88-7.49-7.66-11-11.65-3.73-4.17-7.7-8.1-11.42-12.27-.53-.59-1.14-1.09-2-1.88a23.43,23.43,0,0,0-2.67,6.15,1.75,1.75,0,0,0,.47,1.56c.31.36.65.71,1,1.05q8.85,9.12,17.7,18.24c.58.6,1.67,1.19,1.32,2.09s-1.57.46-2.39.47q-13.2,0-26.39,0c-1,0-1.91-.08-2.87-.12,1.84-4.68,4.28-9.08,6.44-13.62,1.19-2.52,2.33-5.07,3.52-7.59a2.34,2.34,0,0,0-.61-3.19,16.77,16.77,0,0,1-1.53-1.51c-2.65-2.76-5.53-5.3-7.87-8.35-1-1.28-1-1.8.26-2.77a34.94,34.94,0,0,0,3.35-3.07c5.37-5.35,10.7-10.75,16.13-16A37.26,37.26,0,0,1,1114.65,438.44Zm-6.4,15.32a2.33,2.33,0,0,0-.56.35q-4.74,4.71-9.47,9.46a1.17,1.17,0,0,0,.09,1.87,35.1,35.1,0,0,1,2.67,3.05c1.09,1.34,1.56,1.22,2.34-.38.07-.15.13-.29.19-.44l4.86-12a8.16,8.16,0,0,0,.46-1.34C1108.9,454,1108.7,453.77,1108.25,453.76Z"/><path class="cls-2" d="M1206.56,499.48a3.54,3.54,0,0,1-2.54.46c-9.27,0-18.54,0-27.81,0a5.55,5.55,0,0,1-4.44-1.8c-5.65-6-11.19-12.05-16.87-18-4.41-4.61-8.6-9.44-13.1-14-1.75-1.76-1.75-1.79,0-3.59q15.09-15.09,30.16-30.19a4.71,4.71,0,0,1,3.57-1.57c9.67,0,19.34,0,29,0a3.23,3.23,0,0,1,1.86.28c.31.83-.35,1.17-.75,1.61-2.09,2.32-4.59,4.21-6.8,6.4-5.68,5.61-11.31,11.29-17,16.9-2.32,2.3-4.91,4.33-7.15,6.73-1.5,1.62-1.54,1.66,0,3.26,6.29,6.47,12.68,12.84,18.84,19.43,3.6,3.85,7.29,7.61,11,11.4A28.49,28.49,0,0,1,1206.56,499.48Z"/><path class="cls-1" d="M1114.65,438.44a37.26,37.26,0,0,0-6.16,5.25c-5.43,5.28-10.76,10.68-16.13,16a34.94,34.94,0,0,1-3.35,3.07c-1.27,1-1.25,1.49-.26,2.77,2.34,3.05,5.22,5.59,7.87,8.35a16.77,16.77,0,0,0,1.53,1.51,2.34,2.34,0,0,1,.61,3.19c-1.19,2.52-2.33,5.07-3.52,7.59-2.16,4.54-4.6,8.94-6.44,13.62l-.82.24c-3.13-2.52-5.52-5.76-8.29-8.64-5.64-5.87-11.28-11.75-16.75-17.79-2.36-2.61-4.83-5.1-7.25-7.65-1.45-1.52-1.48-1.58,0-3.07q9.39-9.44,18.82-18.83c3.85-3.85,7.73-7.66,11.52-11.55a5.12,5.12,0,0,1,4-1.65c8.07.06,16.15,0,24.23,0,.31,0,.64,0,1,0,1.79.11,2,.33,1.47,2-.3,1.08-.61,2.15-.92,3.22Z"/><path class="cls-1" d="M84,216.85c3.78-.62,6.41,1.05,8.89,3.81,5.12,5.68,10.38,11.25,15.65,16.81,4,4.21,8,8.48,11.93,12.75,1.74,1.88,1.79,2.06,0,3.86Q105.57,269,90.66,283.91a4.62,4.62,0,0,1-3.8,1.59c-1.27-.09-2.55,0-3.83,0l-.38-.11c.22-8.24-.72-16.45-.53-24.69a5.83,5.83,0,0,0-.06-.71l.21-1.29c2.4-1.48,4.08-3.72,6.06-5.66a1.15,1.15,0,0,0,.07-1.72c-1.84-1.83-3.31-4.06-5.71-5.29l-.21-1.77q.31-7.05.61-14.1c0-.95.09-1.91.16-2.86q.36-5.25.74-10.48Z"/><path class="cls-3" d="M219.35,397.68c1,0,1.91.06,2.87.06h56.65c1,0,1.91,0,2.87-.06.55,0,1.1.07,1.65.07,4.54,0,9.08,0,13.61,0,.55,0,1.31-.28,1.55.63-.7.66-1.54.35-2.29.37-4,.11-7.95-.15-11.92.15l-.2,0-.2.08a4.7,4.7,0,0,0-2.35-.24c-3.59,0-7.18,0-10.77,0q-24.66,0-49.33,0c-.88,0-1.91-.42-2.65.49,0,.95-.1,1.91-.1,2.87,0,14.3,0,28.61,0,42.91a3.71,3.71,0,0,1-2.16,3.76q-38.64,22.2-77.22,44.53c-.9.52-1.76,1.1-2.63,1.65-2.86,1.6-5.77,3.11-8.54,4.84a3.58,3.58,0,0,1-4.29.06q-31.17-18.13-62.44-36.1c-8.71-5-17.41-10.09-26.16-15.06a3.36,3.36,0,0,1-2-3.37q.09-51.18,0-102.38a3.68,3.68,0,0,1,2.2-3.71q23.3-13.33,46.5-26.81c.9-.52,1.77-1.09,2.65-1.63,5.41-3.09,10.83-6.16,16.23-9.27,7.76-4.46,15.52-8.92,23.24-13.45a3.15,3.15,0,0,1,3.67,0q44.4,25.71,88.86,51.3a3.57,3.57,0,0,1,2.07,3.57c-.07,17.18,0,34.37,0,51.56,0,1,.07,1.91.1,2.87C218.85,397.63,219,397.74,219.35,397.68ZM85,312.08c-.78.4-1.58.76-2.34,1.2q-22.95,13.23-45.9,26.43a3.91,3.91,0,0,0-2.31,3.89q.1,50.37,0,100.72a3.9,3.9,0,0,0,2.27,3.91Q69,466.77,101.24,485.46q11.52,6.65,23.05,13.29c.88.51,1.65,1.16,2.83.42,2.9-1.83,5.88-3.52,8.84-5.26a6.47,6.47,0,0,0,.66-.26q39.78-22.95,79.55-45.88a2.84,2.84,0,0,0,1.51-2.91q0-50.85,0-101.69a3.2,3.2,0,0,0-1.9-3.19q-44-25.29-87.83-50.7a3.33,3.33,0,0,0-3.88,0c-12.56,7.34-25.18,14.58-37.77,21.85C85.84,311.41,85.4,311.76,85,312.08Z"/><path class="cls-3" d="M102.24,116.51c1,0,2.08.12,3.11.12H249.19a14,14,0,0,1,3.11.14c3.6.87,6.08,3,6.47,8,.06.79,0,1.59,0,2.39v80.3c0,.88,0,1.75.06,2.63a42.94,42.94,0,0,0,0,6.71c0,.8-.12,1.59-.12,2.39q0,32,0,63.92c0,.79.07,1.59.11,2.38,0,5.15-.07,10.3-.08,15.45,0,3.16,0,6.33.06,9.5,0,.47-.07.95-.07,1.43v73.3c0,.39,0,.8,0,1.19.22,2.92,1.69,4.74,4.61,5.69a3.06,3.06,0,0,0,2.07.39l15.79,0c5.19,0,10.38,0,15.56,0,.55,0,1.25-.2,1.79.91l-17.36.15c-5.12,0-10.24-.22-15.35,0-4.74.18-8.2-3.18-8.18-8.18.1-28.3,0-56.59,0-84.89,0-4.32-.07-8.63-.11-12.95,0-.63.15-1.26.15-1.89q0-10.5,0-21c0-2.94-.06-5.89-.1-8.83a59.72,59.72,0,0,0,0-6.69c.12-5.77.21-11.53,0-17.3.11-5,.28-9.91,0-14.87,0-.8.1-1.6.1-2.39V126c0-.48,0-1,0-1.44a7.09,7.09,0,0,0-6.91-6.91c-.72,0-1.44,0-2.16,0H105.76c-6.32,0-12.64,0-19,0a5.87,5.87,0,0,0-2.6.21l0,.13a.45.45,0,0,0-.07.61c0,7.43-.11,14.87,0,22.3a3.48,3.48,0,0,1-2,3.55Q63,155.26,44,166.32a3.47,3.47,0,0,1-4.08-.06Q21,155.22,2,144.33A3.33,3.33,0,0,1,0,141q.12-22.06,0-44.13a3.16,3.16,0,0,1,1.83-3.19Q21.19,82.61,40.46,71.38a2.79,2.79,0,0,1,3.23.05Q63,82.64,82.31,93.71a3,3,0,0,1,1.75,3c0,6.47,0,13,.06,19.42-.07.33.06.47.39.41C90.42,116.68,96.33,116.72,102.24,116.51Zm-19,2.5c0-7.19,0-14.38,0-21.57A3.34,3.34,0,0,0,81.36,94Q62.63,83.36,44,72.49a3.35,3.35,0,0,0-3.88,0Q21.53,83.32,2.8,94a3.33,3.33,0,0,0-2,3.34q.1,21.57,0,43.14a3.36,3.36,0,0,0,1.91,3.4q18.72,10.68,37.35,21.55a3.35,3.35,0,0,0,3.88.05q18.62-10.87,37.34-21.56a3.51,3.51,0,0,0,2-3.59C83.18,133.23,83.24,126.12,83.24,119Z"/><path class="cls-2" d="M84,216.86q-.37,5.23-.74,10.48c-.07.95-.11,1.91-.16,2.86q-.3,7.05-.61,14.1a5.44,5.44,0,0,1-2.43-1.88C73.75,236,67.4,229.54,61.2,223c-1.72-1.81-3.41-3.7-5.11-5.56l.23-.53Z"/><path class="cls-2" d="M82.06,260a5.83,5.83,0,0,1,.06.71c-.19,8.24.75,16.45.53,24.69H56.43c-.34-.86.27-1.16.63-1.52,5.52-5.52,11-11.11,16.63-16.51,2.18-2.08,4.43-4.11,6.58-6.23A3.46,3.46,0,0,1,82.06,260Z"/><path class="cls-4" d="M1122.59,139.64c-10.87-6.27-21.71-12.58-32.62-18.78a3.74,3.74,0,0,1-2.19-3.77q.12-17.86,0-35.73a4.11,4.11,0,0,1,2.47-4.11c6.34-3.56,12.59-7.27,18.87-10.93,4.1-2.32,8.23-4.59,12.27-7a3.17,3.17,0,0,1,3.7,0q15.81,9.25,31.73,18.32a3.22,3.22,0,0,1,1.82,3.24q-.09,18.32,0,36.65a3.19,3.19,0,0,1-1.9,3.19c-7.91,4.5-15.77,9.08-23.65,13.63a9.48,9.48,0,0,0-2.74,1.9c-2.38.72-4.25,2.38-6.45,3.42l-.42-.64,6.69-4.24a5.66,5.66,0,0,0,1.11-.42c8.37-4.81,16.73-9.66,25.11-14.45a2.68,2.68,0,0,0,1.48-2.71c-.06-3.35,0-6.71,0-10.06,0-8.62,0-17.25,0-25.87a2.9,2.9,0,0,0-1.75-3c-1.51-.73-2.92-1.65-4.37-2.49Q1138.38,68,1125,60.27c-1-.59-1.9-1-3.09-.25-4.1,2.47-8.25,4.85-12.38,7.27-6.23,3.59-12.43,7.24-18.71,10.72a3.7,3.7,0,0,0-2.24,3.74q.14,17.39,0,34.76a3.73,3.73,0,0,0,2.24,3.75c6.82,3.83,13.59,7.77,20.35,11.71,3.93,2.29,8,4.41,11.73,7Z"/><path class="cls-4" d="M1188.27,221.67c0-3.2.06-6.39,0-9.59a3.16,3.16,0,0,1,1.82-3.25c5.65-3.16,11.24-6.41,16.81-9.7a2.87,2.87,0,0,1,3.3-.07q8.46,5,17,9.83a2.9,2.9,0,0,1,1.65,2.87q-.06,9.83,0,19.65a2.87,2.87,0,0,1-1.68,2.84q-8.55,4.83-17,9.81a2.63,2.63,0,0,1-3.06,0q-8.57-5-17.23-9.92a2.86,2.86,0,0,1-1.59-2.91C1188.31,228.06,1188.27,224.87,1188.27,221.67Zm17.31-20a22,22,0,0,1,2.77-1.33c1-.34,1.69,1,2.89.77-2.29-1.95-2.49-2-4.64-.75a15.67,15.67,0,0,0-1.36.94,11.45,11.45,0,0,0-3.31,1.93c-2.08,1.11-4.4,1.85-6,3.77l.06-.05a4.45,4.45,0,0,0-3.43,2l.14,0,0,.13c-2.75.24-3.56,1-3.56,3.52q0,8.22,0,16.44c0,4,0,4,3.69,5.85a10.24,10.24,0,0,0,2.42,1.4,70.94,70.94,0,0,0,6.7,3.87,3.54,3.54,0,0,0,2.82,1l-2.43-1.37a49,49,0,0,0-6.78-3.81,7.31,7.31,0,0,0-2.34-1.46c-.09-.15-.17-.3-.25-.45s-.09-.41-.13-.61a5.57,5.57,0,0,1,1.94.91q6.86,3.94,13.69,7.91a.66.66,0,0,1-.88.17c-.73.13-1.21-.77-2-.5,1.85,1.93,2.66,2.25,4.16,1.4,3.74-2.14,7.44-4.34,11.15-6.52,1.61-.89,3.17-1.86,4.82-2.64a3.46,3.46,0,0,0,2.22-3.72c-.14-5.49,0-11,0-16.49,0-.88,0-1.76,0-2.63s-.59-1.25-1.48-.94h.11c.15-.47-.13-.75-.48-.95-3.9-2.21-7.66-4.67-11.72-6.58-.64-.55-1.22-1.23-2.36-1a4.57,4.57,0,0,0,2.07,1.37c1,1,2.5,1.23,3.42,2.33l-.34.39a62.26,62.26,0,0,1-7.24-4,2.32,2.32,0,0,0-2.62,0,27.93,27.93,0,0,1-4.79,2.57l-.33-.38a1.37,1.37,0,0,1,.09-.4A16.51,16.51,0,0,0,1205.58,201.63Z"/><path class="cls-2" d="M82.69,246.07c2.4,1.23,3.87,3.46,5.71,5.29a1.15,1.15,0,0,1-.07,1.72c-2,1.94-3.66,4.18-6.06,5.66C82.06,254.5,81.83,250.27,82.69,246.07Z"/><path class="cls-2" d="M84.1,118.54a.45.45,0,0,1,.07-.61C84.15,118.14,84.12,118.34,84.1,118.54Z"/><path class="cls-2" d="M84.51,116.53c-.33.06-.46-.08-.39-.41Z"/><path class="cls-5" d="M397.33,92.51c1.2,0,2.4.09,3.59.09q188.54,0,377.05,0c1.12,0,2.24,0,3.36-.06,2.62,0,5.25.08,7.88,0,4.69,0,9.38.18,14.07-.13,3.27.3,6.54.13,9.81.13,11.81,0,23.62,0,35.43,0,7.19,0,14.38.07,21.57.06,9.2,0,19.35,7.36,19.23,19.45-.12,12.63-.08,25.25-.1,37.87,0,1.2.09,2.39.14,3.59-.22,6.23-.17,12.46,0,18.7l-7.16.06c-6.22.09-4.34-.67-8.69,3.56-2.4,2.33-4.78,4.67-7.17,7-.06-.92-.13-1.84-.23-3.13-1.1,1-2,1.81-2.79,2.67s-2.57,1.69-2.55,3c0,1.13,1.5,1.94,2.41,2.83s1.58,2.15,3,2.67c.08-1,.15-1.9.22-2.77,1.52.32,1.92,1.82,2.85,2.75a59.93,59.93,0,0,1,6.36,6.77,3.7,3.7,0,0,0,3.29,1.55c3.74-.07,7.48,0,11.21-.05-1.33,1.26-.73,2.86-.77,4.34,0,.64,0,1.28,0,1.92q0,72.55,0,145.13c0,3.08,0,3.1,3,3.1q16,0,31.91,0c.72,0,1.44,0,2.16.05s1.14.24,1.1,1-.63.84-1.2.88c-.72,0-1.44,0-2.16,0H892.89c-3.78,0-3.66-.16-3.66,3.69q0,44.5,0,89c0,.56,0,1.12,0,1.68.09,1.84.27,2.1,2.11,2.1,8.4,0,16.79-.05,25.19-.08l35.86.05c4.24,0,4.05-.2,4,4,0,5.18,0,10.36,0,15.54,0,2.31,0,2.31-2.42,2.48,0-.13,0-.26,0-.39.56-.09,1.13-.17,1.42-.75,0-5.36,0-10.71-.07-16.07,0-4,.51-3.58-3.57-3.58H662.69a13.66,13.66,0,0,1-1.92,0c-1.37-.17-1.92.39-2.3,1.73-1.08,3.74-3.66,5.63-7.56,5.83-.64,0-1.28,0-1.92,0H583.26c-.8,0-1.6,0-2.4-.07-3.4-.24-5.58-2.13-6.83-5.2a17.64,17.64,0,0,1-.55-2.08c-1-.95-2.29-.5-3.43-.5q-111.73,0-223.47,0-33.09,0-66.18,0c-1,0-2.08-.29-3,.38-.55.8-.28,1.71-.29,2.56,0,5.67-.06,11.33-.08,17,.29.59.86.67,1.42.76l0,.39c-2.37-.17-2.41-.17-2.41-2.49q0-8.5,0-17c0-2.36.19-2.53,2.65-2.54h32.83q14.59,0,29.2,0c2.32,0,2.45-.18,2.51-2.42,0-.56,0-1.12,0-1.68q0-16.4,0-32.79a19.4,19.4,0,0,1,.05-3.58c.25-1.3-.91-2-.93-3.16a2.41,2.41,0,0,0,1.35.39c3.41,0,6.82,0,10.23,0a2.93,2.93,0,0,0,2.24-1.13c2.59-2.67,5.24-5.3,7.87-7.94a4.21,4.21,0,0,1,2.1-1.49c.27.84-.13,1.81.45,2.81,1.63-1.57,3.09-3,4.59-4.41.71-.67.53-1.14-.09-1.75-1.24-1.22-2.4-2.52-3.62-3.76-.28-.29-.52-.86-1.14-.49l-.21,2.35a2.94,2.94,0,0,1-1.87-1.38,31.52,31.52,0,0,0-3.68-4.06A27.44,27.44,0,0,1,357,383.7a3.83,3.83,0,0,0-3.64-1.79c-3.41,0-6.83,0-10.25-.06,0-1.28.1-2.56.1-3.84q0-101.79,0-203.6c0-1.2,0-2.4,0-3.6s.06-2.39.07-3.59V112.37a19.35,19.35,0,0,1,19.63-19.81c9.74.19,19.48,0,29.22,0C393.82,92.59,395.57,92.54,397.33,92.51Zm17.2,47.42a1.76,1.76,0,0,0-1.3.67,4.12,4.12,0,0,0-1.6,3.56c0,5.43,0,10.87,0,16.3,0,1.85,0,1.86,1.83,1.9.64,0,1.28,0,1.92,0h62.84l22.3,0-.49.84c-.32,0-.64-.07-1-.07H413.81c-.71,0-1.46-.12-2,.46,0,.72-.13,1.43-.13,2.15V393.23c0,2.92,0,2.56,2.61,2.59H592c.8,0,1.6,0,2.4,0a8.89,8.89,0,0,0,8.42-8.3c.07-1,0-2.08,0-3.11,0-3.18,0-6.35,0-9.52a2.8,2.8,0,0,0-.47-2,8.61,8.61,0,0,0,.47-3.77q0-25.86,0-51.74c0-1.69,0-3.2-1.66-4.41a3,3,0,0,1-.76-3.9,3.67,3.67,0,0,1,3.38-2.28A3.57,3.57,0,0,1,607.1,309a3.18,3.18,0,0,1-.93,4.08,3.64,3.64,0,0,0-1.49,3.27q.06,26.6.05,53.18l.07,14.93c0,.88,0,1.75,0,2.63a10.83,10.83,0,0,1-8.38,10.4,15.73,15.73,0,0,1-3.81.25H415c-.72,0-1.44,0-2.16,0-1-.06-1.27.43-1.24,1.3,0,.56,0,1.12,0,1.68v23.51c0,3.69,0,3.69,3.66,3.69H816.92c.56,0,1.12,0,1.68,0,2.08,0,2.08,0,2.12-2.09v-.72q0-33.47,0-66.92c0-3,.24-2.71-2.69-2.71H751.8c-4.08,0-8.15,0-12.23.05H669a96.8,96.8,0,0,0-12.4.15c-1.12-.06-2.23-.17-3.34-.17H623.55a9.15,9.15,0,0,1-3.08-.3,6.77,6.77,0,0,1-4.73-6.74c0-6.15,0-12.29,0-18.44,0-4,0-8,0-12,0-2,.09-3.84-1.64-5.47-1.44-1.37-.89-3.9.64-5.13a3.52,3.52,0,0,1,4.95.48,3.76,3.76,0,0,1-.41,5.33,3.52,3.52,0,0,0-1.63,3c.08,4.47.07,8.95.09,13.43,0,6.13-.08,12.27,0,18.41,0,3.17,1.56,4.85,4.67,5.37a12.69,12.69,0,0,0,2.14.12h54.08l.59-.24,1.78-.1a6.46,6.46,0,0,0,3,.33h57.42c.87,0,1.75,0,2.63-.07s1.91,0,2.87,0h70.76c3.36,0,3,.42,3-3.12q0-77.34,0-154.67a5.77,5.77,0,0,1,0-.72,3.66,3.66,0,0,0-1.22-3.2c-1.81-1.8-3.48-3.75-5.27-5.57-.74-.75-.69-1.25,0-2,1.79-1.72,3.52-3.5,5.27-5.25.56-.56,1.22-1.06,1.23-2,.62-.21,1.4-.15,1.74-.92.89-.92,1.84-1.78,2.65-2.76a3.61,3.61,0,0,1,3.17-1.27c3,.07,6.08,0,9.11,0,.59,0,1.26-.24,1.77.26,0,.61-.48.87-.8,1.19-3.42,3.36-6.86,6.7-10.28,10.07-1.74,1.72-1.71,1.46-.11,3.14,3.31,3.47,6.65,6.92,10,10.4.52.55,1.23,1,1.42,1.8-.53.47-1.12.28-1.65.29-3.12,0-6.24-.06-9.36,0a3.85,3.85,0,0,1-3.3-1.5,16.24,16.24,0,0,0-3.34-3.26V350.17c0,.48,0,1,0,1.44,0,1.89.06,1.89,1.84,1.94H863.4c3.08,0,2.82.29,2.82-2.85q0-74.25,0-148.48c0-.56,0-1.12,0-1.68a1,1,0,0,0-1.14-1.18c-1,0-2.08-.06-3.12,0a3.17,3.17,0,0,1-2.73-1.12c-3.57-3.89-7.21-7.71-10.8-11.57-1.29-1.38-1.28-1.42.12-2.83,2.93-3,6-5.76,8.78-8.86,1.91-2.15,4-3.32,6.85-2.81a5.77,5.77,0,0,0,.72,0c.87.06,1.36-.27,1.33-1.22,0-.64,0-1.28,0-1.92V118.42c0-3.79,0-3.79-3.79-3.79H369.88c-3.69,0-3.69,0-3.69,3.65q0,129.65,0,259.3c0,1.32-.59,3,.38,3.9s2.45.24,3.71.29a3.2,3.2,0,0,1,2.57.92q5.58,6.1,11.31,12.09c.84.88.67,1.38-.11,2.14-3,3-6.1,5.89-9,9-2,2.11-3.94,3.49-7,3.05-1.81-.26-1.88,0-1.89,1.8q0,7.67,0,15.35c0,1.79.05,1.83,1.91,1.83q20.26,0,40.54,0c1.86,0,1.91,0,1.92-1.86q0-13.2,0-26.39c0-1.89-.05-1.91-2.07-1.93h-7.2c-.71,0-1.27-.11-1.25-1s.65-.94,1.33-.94c1.84,0,3.68,0,5.51,0,4.12-.07,3.68.68,3.68-3.69q0-122.94,0-245.87c0-.8,0-1.6,0-2.4.05-2.22,1-3.83,3.2-4.51ZM821.74,391.64q0,17.13,0,34.27c0,2,0,2,2,2q20.37,0,40.75,0c1.71,0,1.75-.05,1.77-1.72,0-4.23,0-8.47,0-12.7q0-27.81,0-55.61c0-2.38,0-2.4-2.29-2.4q-20.13,0-40.27,0c-1.86,0-1.86,0-1.92,1.83,0,.48,0,1,0,1.44ZM616.35,453.23H577.77c-.64,0-1.28,0-1.92,0-.94,0-1.27.31-1,1.3a6.85,6.85,0,0,0,5.69,5.13,25,25,0,0,0,2.87.09h65.43l2.39,0a6.51,6.51,0,0,0,5.65-3.48c1.41-2.36,1-3-1.68-3Z"/><path class="cls-6" d="M278.4,474l0-.39c1,0,2.08,0,3.12,0H950.63c1.12,0,2.24,0,3.36,0,0,.13,0,.26,0,.39-3,.1-6,.69-9,1.09q-8.55,1.14-17.08,2.33-7.11,1-14.22,2-9.6,1.38-19.19,2.8c-5.54,1-11.14.81-16.73.81q-263.16,0-526.32,0a118.43,118.43,0,0,1-18.33-1.8c-5.53-.73-11.06-1.43-16.59-2.18-6.39-.88-12.78-1.8-19.17-2.69q-8.28-1.14-16.57-2.26C280,474.07,279.2,474.07,278.4,474Z"/><path class="cls-1" d="M970.91,233.14c3.66.53,6.71,2.44,9.71,4.4a37.58,37.58,0,0,1,12.51,13.62,34.81,34.81,0,0,1,4.61,16.42c0,4.55.07,9.07-1.34,13.5a40.18,40.18,0,0,1-9.88,16.43A39.32,39.32,0,0,1,971.24,307a6.88,6.88,0,0,1-2.33.53,22.18,22.18,0,0,1,.28-4.06c.55-2.81.23-3.05-2.58-2.45a32.46,32.46,0,0,1-16.35-.28,31.69,31.69,0,0,1-19.79-16.23c-3.91-7.48-4.31-15.32-2.28-23.26a29.82,29.82,0,0,1,11-16.41A32.21,32.21,0,0,1,958,238a34.85,34.85,0,0,1,11.55,1.77c1.63.49,1.81.36,1.52-1.38A24.93,24.93,0,0,1,970.91,233.14Zm20.14,37.44c-.08-1.6-.06-2.64-.19-3.67a32.33,32.33,0,0,0-10.69-20.81,31.7,31.7,0,0,0-6.91-4.7c-1.39-.7-1.82-.38-1.93,1.21,0,.39,0,.79,0,1.19-.08,2.4.33,4.78.41,7.16.34,10-.18,20.1-.45,30.14q0,.36-.06.72c-.62,4.82-.71,9.68-1.28,14.51-.43,3.7.15,4,3.55,2.2C984.87,292.45,990.31,282.69,991.05,270.58Z"/><path class="cls-1" d="M1018.11,499.93c-4.64,0-9.28-.05-13.92,0a4.91,4.91,0,0,1-4-1.64c-5.61-6.13-11.26-12.2-16.9-18.29l-.49-.53L970.5,466.7c-.33-.35-.67-.68-1-1.05a1.67,1.67,0,0,1,0-2.38c.42-.49.87-.94,1.33-1.39,9.66-9.67,19.36-19.31,29-29a6.18,6.18,0,0,1,4.86-2c9.28.08,18.55,0,27.83.05.75,0,1.83-.38,2.16.49s-.71,1.33-1.25,1.86c-9.65,9.22-19.12,18.62-28.56,28.06-.62.62-1.37,1.11-2,1.69a1.44,1.44,0,0,0-.19,2.29c.78.91,1.47,1.91,2.31,2.75,4.4,4.41,8.7,8.92,13,13.46,5.2,5.52,10.54,10.92,15.82,16.37a6.22,6.22,0,0,1,.66.7c.58.77.44,1.18-.46,1.29a15.34,15.34,0,0,1-1.92.05Z"/><path class="cls-1" d="M1077.68,499.67c-.67.47-1.48.25-2.24.25-9.43,0-18.86,0-28.29,0a5,5,0,0,1-4.11-1.82c-2.92-3.17-5.89-6.29-8.83-9.44-5.78-6.17-11.66-12.26-17.4-18.48-1.4-1.52-2.72-3.13-4.21-4.57a1.44,1.44,0,0,1,0-2.42q15.71-15.66,31.37-31.35a3.37,3.37,0,0,1,2.6-1h29.24a4.39,4.39,0,0,1,1,.07c.79.16.86.62.4,1.19a14,14,0,0,1-1,1.05c-5.49,5.47-10.84,11.1-16.52,16.37-4.45,4.13-8.68,8.48-13,12.69-.46.44-.91.9-1.34,1.37a1.07,1.07,0,0,0,0,1.52c.2.24.42.47.64.7,3.76,3.92,7.47,7.88,11.28,11.75,5,5.06,9.74,10.35,14.76,15.38,1.85,1.85,3.57,3.86,5.4,5.76A.92.92,0,0,1,1077.68,499.67Z"/><path class="cls-4" d="M970.91,233.14a24.93,24.93,0,0,0,.14,5.25c.29,1.74.11,1.87-1.52,1.38A34.85,34.85,0,0,0,958,238a32.21,32.21,0,0,0-18.79,6.87,29.82,29.82,0,0,0-11,16.41c-2,7.94-1.63,15.78,2.28,23.26a31.69,31.69,0,0,0,19.79,16.23,32.46,32.46,0,0,0,16.35.28c2.81-.6,3.13-.36,2.58,2.45a22.18,22.18,0,0,0-.28,4.06l-.47.48a72,72,0,0,1-9.73,1,38.22,38.22,0,0,1-23.19-7.83,37.59,37.59,0,0,1-15.13-25.43,38,38,0,0,1,8.45-30.64,37.62,37.62,0,0,1,18.62-12.46,35.28,35.28,0,0,1,14.86-1.53,57.49,57.49,0,0,1,8.45,1.6C970.82,232.88,970.87,233,970.91,233.14Z"/><path class="cls-3" d="M964.13,185.73c-6.19,0-12.39-.1-18.58-.08-5,0-10-.17-15,.12-1,0-1.91-.12-2.87-.13-7.28,0-14.55,0-21.83,0-.79,0-1.7.27-2.48-.58a4.21,4.21,0,0,1,2.66-.4q29.51,0,59,.1h149.2a4.09,4.09,0,0,0,2.55-.38c4-1,5.89-3.38,5.91-7.58q.06-14.14,0-28.29c0-2.95.17-5.91-.11-8.86l.32-.71.56.07.42.64c0,.88-.1,1.75-.1,2.63q0,16.65,0,33.31a23.77,23.77,0,0,1,0,2.39,8.32,8.32,0,0,1-7.89,7.64c-.87.06-1.75,0-2.63,0h-146C966.2,185.64,965.17,185.7,964.13,185.73Z"/><path class="cls-6" d="M999.39,344.54c1.2,0,2.4,0,3.6,0,.39,0,.84,0,1,.45s-.14.76-.42,1L999,350.61c-.9.91-1.83,1.78-2.7,2.72-1.22,1.31-1.23,1.67.05,3,2.1,2.19,4.28,4.3,6.39,6.48.52.54,1.56,1,1.18,1.87s-1.41.43-2.17.47c-1,.05-2.09-.11-3.11,0a6.93,6.93,0,0,1-7-3A62.22,62.22,0,0,0,986,356c-1.26-1.31-1.28-1.49-.07-2.73,2.52-2.56,5.09-5.07,7.61-7.63a3.49,3.49,0,0,1,2.78-1.11c1,0,2.08,0,3.11,0Z"/><path class="cls-1" d="M1062.84,244.75a65.76,65.76,0,0,1-5.33,5.61c-1,1.09-2.12,2.17-3.22,3.21-.89.85-.78,1.52,0,2.45,2.2,2.64,4.67,5,7,7.49.42.43,1.08.73,1,1.75-3,0-6,0-9,0a1.54,1.54,0,0,1-1-.52c-2.46-3.06-5.65-5.42-8-8.6-1.2-1.63-1.23-1.75.18-3.19,2.29-2.34,4.63-4.64,6.94-7a3.22,3.22,0,0,1,2.25-1.22Z"/><path class="cls-6" d="M1017.41,345.17c-2.56,2.49-4.95,5.16-7.69,7.48-.3.25-.65.47-.93.74-1,1-1,1.33,0,2.38,1.65,1.74,3.35,3.42,5.05,5.11a16.78,16.78,0,0,1,3.29,4.18c-3.23,0-6.14,0-9.05,0a2.1,2.1,0,0,1-1.41-.84c-2.74-2.89-5.46-5.8-8.2-8.69a1.19,1.19,0,0,1,0-1.88l8.47-8.44a1.86,1.86,0,0,1,1.27-.6c3,0,6,0,9,0Z"/><path class="cls-1" d="M1075.56,265.26c-3.28,0-6.28,0-9.28,0a2.33,2.33,0,0,1-1.77-1.12c-1.86-2.53-4.26-4.54-6.39-6.81-.27-.29-.57-.56-.82-.87-1.22-1.5-1.23-2.1.12-3.48,2.35-2.4,4.75-4.75,7.11-7.13a3.37,3.37,0,0,1,2.55-1.11c2.23,0,4.47,0,6.71,0,.46,0,1-.07,1.23.49s-.29.88-.63,1.2a68.8,68.8,0,0,1-5,4.77c-3.68,2.86-3.69,3.58-.46,6.86q3.12,3.17,6.23,6.32A6.73,6.73,0,0,1,1075.56,265.26Z"/><path class="cls-1" d="M1088.44,244.73a14.83,14.83,0,0,1-4.07,4.52,42,42,0,0,0-4,3.77c-1.35,1.38-1.34,2.08.13,3.65,2,2.15,4.15,4.21,6.22,6.31a9.36,9.36,0,0,1,1.12,1.24c.35.49.21,1-.43,1a61.53,61.53,0,0,1-8.37,0,2.58,2.58,0,0,1-1.73-1.21,98.48,98.48,0,0,0-7.21-7.66c-1.47-1.54-1.49-1.59,0-3.07,2.41-2.45,4.87-4.85,7.27-7.3a3.8,3.8,0,0,1,3-1.25C1082.84,244.76,1085.37,244.73,1088.44,244.73Z"/><path class="cls-1" d="M1096.19,244.74c1.2,0,2.4,0,3.6,0,.46,0,1,0,1.16.57.08.43-.28.74-.61,1a62.57,62.57,0,0,0-6.24,5.94c-2.82,2.76-2.78,2.32,0,5.12q3.12,3.15,6.25,6.31c.32.33.78.67.57,1.2s-.8.45-1.26.46c-2.23,0-4.47,0-6.71,0a3.25,3.25,0,0,1-2.69-1.33,105.91,105.91,0,0,0-7.56-8,1.44,1.44,0,0,1,0-2.42c2.62-2.57,5.24-5.16,7.79-7.8,1-1.06,2.26-1.06,3.54-1.05.72,0,1.44,0,2.16,0Z"/><path class="cls-6" d="M991.6,344.54a7.72,7.72,0,0,1-2.17,2.7c-1.91,1.94-3.86,3.84-5.77,5.78-1.6,1.62-1.6,1.92,0,3.51,2,2.07,4,4.09,6.08,6.14a13.16,13.16,0,0,1,1.14,1.22c.46.58.36,1.16-.43,1.18-2.72.05-5.43,0-8.15,0a2.6,2.6,0,0,1-1.78-1.13c-2.36-2.71-4.85-5.3-7.37-7.88-1-1-1-1.51.12-2.63,2.63-2.69,5.31-5.32,8-8a2.88,2.88,0,0,1,2.14-.89Z"/><path class="cls-6" d="M959.86,353.18a4.33,4.33,0,0,0,2.11-1.51c1.93-1.91,3.85-3.84,5.77-5.76a3.45,3.45,0,0,1,2.44-1.36h8.06c.37.88-.24,1.17-.6,1.54-2.31,2.32-4.65,4.62-6.95,7-1.59,1.61-1.58,1.9,0,3.52,2,2.06,4.05,4.08,6.08,6.13a13.28,13.28,0,0,1,1.14,1.23c.46.61.27,1.14-.49,1.16-2.71,0-5.44.13-8.14-.07-1.43-.1-2.19-1.5-3.06-2.53a49.27,49.27,0,0,0-6.92-6.93A4.77,4.77,0,0,1,959.86,353.18Z"/><path class="cls-6" d="M955.94,365.17c-2.85-3-5.73-6-8.54-9-1.26-1.36-1.22-1.64.09-3,2.45-2.49,5-4.93,7.41-7.44a3.72,3.72,0,0,1,3-1.22c1.43,0,2.86-.07,4.29-.12,1.07.22,2.2-.09,3.47.35-1.47,2.4-3.9,3.78-5.35,6l-.49.45,0,0a17.12,17.12,0,0,0-2.64,2.39c-.93.85-.73,1.64.1,2.43a2.76,2.76,0,0,0,1.58,1c.14,1,.95,1.62,1.6,2.29,1.28,1.31,2.59,2.58,3.85,3.9.4.42,1.15.8.78,1.55-.29.58-1,.4-1.52.4C961,365.17,958.48,365.17,955.94,365.17Z"/><path class="cls-1" d="M1049.8,265.31h-8.59a2.71,2.71,0,0,1-1.92-.87c-2.85-2.8-5.66-5.64-8.22-8.7a1.23,1.23,0,0,1,0-1.89c2.83-2.82,5.66-5.65,8.5-8.46a1.79,1.79,0,0,1,1.28-.59c2.84,0,5.69,0,8.52,0,.12,1-.56,1.32-1,1.74-2.24,2.28-4.53,4.51-6.77,6.8-1.34,1.36-1.34,1.55,0,2.92,2.5,2.57,4.72,5.41,7.37,7.86A8.56,8.56,0,0,1,1049.8,265.31Z"/><path class="cls-1" d="M1085.55,366.65c0,2-.24,2.26-2.39,2.31-1.11,0-2.23,0-3.35,0-2.82,0-2.87.08-2.89,3,0,1.19,0,2.39,0,3.59-.07,1.79-.31,2-2.17,2-2.31.07-2.58-.18-2.62-2.55,0-1.36,0-2.72,0-4.07-.07-1.72-.27-1.94-1.95-2-1.44-.06-2.88,0-4.31,0-2.14,0-2.34-.27-2.36-2.34s.22-2.38,2.25-2.44c1.44,0,2.88,0,4.31,0,1.8-.06,2-.28,2.07-2.14,0-1.44,0-2.87,0-4.31.06-1.94.3-2.15,2.28-2.17h.48c1.7.08,1.95.28,2,1.95.06,1.51,0,3,0,4.55.06,1.84.27,2.06,2.08,2.12,1.35,0,2.71,0,4.07,0C1085.31,364.22,1085.57,364.49,1085.55,366.65Z"/><path class="cls-1" d="M958.84,357a2.76,2.76,0,0,1-1.58-1c-.83-.79-1-1.58-.1-2.43a17.12,17.12,0,0,1,2.64-2.39l.06,2a4.77,4.77,0,0,0-.57,2.37A1.92,1.92,0,0,0,958.84,357Z"/><path class="cls-1" d="M959.78,351.23l.49-.45Z"/><path class="cls-4" d="M675.08,529.72c-8.7.54-15.7-7-15.66-15.24a15.82,15.82,0,0,1,15.29-15.58c8.2-.07,15.9,6.81,15.82,15.57C690.44,523,683.48,530.17,675.08,529.72Zm-.15-23.55a8,8,0,0,0-8.36,8.18c-.13,5.64,4.8,8.55,8.43,8.6a8.56,8.56,0,0,0,8.38-8.43C683.34,509.66,679.82,505.87,674.93,506.17Z"/><path class="cls-1" d="M218.84,399.19c.74-.91,1.77-.49,2.65-.49q24.66,0,49.33,0c3.59,0,7.18,0,10.77,0a4.7,4.7,0,0,1,2.35.24,13.9,13.9,0,0,1-3.81.25Z"/><path class="cls-4" d="M1116.79,184.37a4.09,4.09,0,0,1-2.55.38H965q-29.5,0-59-.1a4.21,4.21,0,0,0-2.66.4c.78.85,1.69.57,2.48.58,7.28,0,14.55,0,21.83,0,1,0,1.91.09,2.87.13a6.09,6.09,0,0,0,1.27,3.78c1.71,2.88,3.43,5.76,5.12,8.65,1,1.71.87,2.4-.75,3.34q-7.05,4.08-14.15,8.05c-2.62,1.46-3.16,1.25-4.74-1.38-1.47-2.47-3-4.91-4.25-7.5a19.47,19.47,0,0,0-1.24-2,1.74,1.74,0,0,0-2.29-.73,7.16,7.16,0,0,1-2.51.72c-3.88-4-7.78-8-11.64-12-1.2-1.25-1.18-1.4.15-2.72,3.8-3.75,7.64-7.46,11.46-11.19.1-.1.27-.19.29-.3s-.09-.23-.27-.13l-6.2-.15c-.63-.91-1.34-1.78-1.9-2.74q-4-7-8-14.11c-.39-.69-.66-1.47-1.5-1.78-.05-1.2-.15-2.39-.14-3.59,0-12.62,0-25.24.1-37.87.12-12.09-10-19.47-19.23-19.45-7.19,0-14.38,0-21.57-.06a6.88,6.88,0,0,1,1.87-3c1.62-1.85,1.65-2,.42-4.16-4.08-7.05-8.14-14.12-12.25-21.16-2-3.51-4.11-7-6.07-10.6-1.16-2.14-1.84-2.13-3.68-.63-2.8,2.28-5.28,4.88-7.86,7.39a52,52,0,0,0-6.17,7,81.51,81.51,0,0,0-11,22.5,11,11,0,0,0-.45,2.59c-4.69.31-9.38.08-14.07.13-2.63,0-5.26,0-7.88,0,0-3,1.16-5.78,1.71-8.67a45.9,45.9,0,0,1,2.82-9.15c1-2.37.86-2.74-1.35-4.07-2.8-1.69-5.66-3.3-8.52-4.9-2.67-1.49-2.86-2.12-1.35-4.66,2.45-4.12,4.85-8.27,7.31-12.38,2.13-3.56,2.57-3.63,6.15-1.45,2.59,1.58,5.19,3.15,7.82,4.67,1.66,1,2.07.94,3.27-.54,3.64-4.49,8-8.28,12-12.38,1.39-1.41,3-2.64,4.46-4,1.31-1.2,1.36-1.51.47-3.07-1.54-2.71-3.15-5.38-4.67-8.09-2.08-3.7-1.8-4.11,1.54-6,4.39-2.46,8.71-5,13.07-7.55,1.59-.92,2.19-.85,3.17.73,2,3.18,3.86,6.44,5.79,9.65,1.23,2,1.56,2.18,3.88,1.44,2.82-.91,5.64-1.81,8.42-2.82a78.72,78.72,0,0,1,12.6-2.87c2.66-.48,2.88-.78,2.9-3.43,0-2.48,0-5,0-7.44,0-.46-.09-1,.44-1.27s.89.2,1.21.52c2.21,2.21,4.47,4.36,6.56,6.67,1,1.13,2,2.28,3.06,3.37,5.94,6,11.4,12.49,16.76,19,1.62,2,3.23,4,4.83,6,.25.31.51.62.28,1.09-.64.42-1.22,0-1.8-.19a76.8,76.8,0,0,0-15.5-2.91c-10.81-1-21.13,1-31.26,4.52-3.19,1.1-3.25,1.28-1.61,4.15,4.5,7.91,9.06,15.8,13.6,23.69l4.77,8.31c1,1.69,1.12,1.8,3.07,1.35a27.11,27.11,0,0,1,12.35,0c2.1.49,2.57.19,3.66-1.69l15.49-26.48c.48-.82.93-1.67,1.42-2.5,1-1.68,1.42-1.72,2.51-.2,2.22,3.12,4.41,6.27,6.61,9.41a8,8,0,0,0,1.65,2c0,.32,0,.65,0,1a4.13,4.13,0,0,0-.64.69L896.05,86.78a2.08,2.08,0,0,0,.45,2.77A28.47,28.47,0,0,1,903,100.34c.67,2.1,1.06,2.32,3.29,2.37s4.33-.12,6.47.08c7.41.72,14.82.36,22.24.24l.79.23a7.42,7.42,0,0,0,1,2.69q2.21,4.65,4.39,9.32a11,11,0,0,1,.57,1.58.8.8,0,0,1-.8,1.15c-.71.06-1.44.06-2.15.06l-31.67,0c-3.21,0-3.4.07-4.3,3a26.09,26.09,0,0,1-4.79,8.22c-3.1,4-2.89,2.66-.47,6.91q4.5,7.92,9,15.84c2.87,5.08,5.72,10.17,8.61,15.23,1,1.75,1.53,1.88,3.17.55a79.86,79.86,0,0,0,9.93-9.35,73.58,73.58,0,0,0,11-16.8A71.62,71.62,0,0,0,944,128.11c.2-.83.47-1.64.79-2.71a6.38,6.38,0,0,1,2,3.18,369.34,369.34,0,0,1,14,43.32,2.19,2.19,0,0,1,.1,1.49c-1.22.06-2.1-.7-3-1.23-2.08-1.18-4.1-2.48-6.15-3.73-1.61-1-2.35-1-3.47.49-2.24,2.92-4.76,5.6-7.26,8.28a63.33,63.33,0,0,1-5.14,4.66c-.65.57-1.44,1-1.81,1.82a1,1,0,0,0,.07.25c0,.07.1.16.16.16,9.82.31,19.65.09,29.48.12,1.19,0,2.39.07,3.59.07h147.37C1115.36,184.28,1116.08,184.34,1116.79,184.37Z"/><path class="cls-4" d="M343.14,170.81c-1.54-.12-3,.43-4.52.46-15.89.36-30.27-3.9-42.81-13.88a63.16,63.16,0,0,1-16.16-19,3.37,3.37,0,0,0-1.35-1.63c0-.62,0-1.25-.07-1.88a8.1,8.1,0,0,0,1.58-3.19c3-8.11,6.47-16,10.16-23.76,3.77-7.94,7.77-15.75,12.1-23.4a378.23,378.23,0,0,1,21.7-33.85c1.53-2.13,3.35-4.06,4.56-6.42l.82-.22a63.9,63.9,0,0,1,54.27,21.51A59.18,59.18,0,0,1,395.2,85.41a35.84,35.84,0,0,1,2.13,7.1c-1.76,0-3.51.08-5.27.09-9.74,0-19.48.15-29.22,0a19.35,19.35,0,0,0-19.63,19.81v54.85C343.2,168.42,343.16,169.62,343.14,170.81Z"/><path class="cls-2" d="M935.76,103.26,935,103a8.5,8.5,0,0,0-1.07-3.13C928.42,89.38,922.71,79,916.3,69c-1.67-2.6-3.1-5.38-5.34-7.58,0-.32,0-.65,0-1,1.52-1.67,2.37-3.76,3.52-5.67.33-.54.67-1.09,1-1.62a1.35,1.35,0,0,1,2.23-.34,86.07,86.07,0,0,1,8.15,7.36,71.43,71.43,0,0,1,19.58,40.71c.3,2.2.26,2.22-2.05,2.26Z"/><path class="cls-4" d="M474,56.16c-1.68,0-3.36,0-5,0s-1.94.28-2,2c-.05,2.95,0,5.91,0,8.87,0,.56,0,1.12,0,1.68-.11,1.5-.34,1.74-1.93,1.8-1.36.06-2.72.06-4.08,0-1.69-.08-2.05-.44-2.09-2.22-.06-2.88,0-5.75,0-8.63,0-3.49,0-3.5-3.39-3.5-2.8,0-5.6,0-8.4,0-1.85,0-2.08-.27-2.14-2.08,0-1.35,0-2.72,0-4.07.06-1.67.29-1.92,2-2,2.88,0,5.76,0,8.64,0,3.24,0,3.25,0,3.26-3.15,0-2.8,0-5.6,0-8.4,0-2.13.24-2.33,2.33-2.38,1.28,0,2.56,0,3.84,0,1.66.08,1.91.3,1.94,2,.05,2.88,0,5.76,0,8.64C467,48,467,48,470.12,48c3,0,5.92,0,8.88,0,2.11,0,2.3.24,2.35,2.36q0,1.68,0,3.36c-.05,2.15-.23,2.35-2.31,2.4-1.68,0-3.36,0-5,0Z"/><path class="cls-4" d="M615.4,64.29H607a3,3,0,0,1-2.09-1c-2.8-2.73-5.12-5.89-8-8.53-.75-.69-.61-1.37.07-2L605,44.59a2.64,2.64,0,0,1,1.91-.86h8.49c.36.79-.13,1.07-.45,1.37-2.49,2.36-4.69,5-7.43,7.1-1.54,1.18-1.54,1.64-.2,3,1.78,1.83,3.59,3.63,5.4,5.43A12.48,12.48,0,0,1,615.4,64.29Z"/><path class="cls-4" d="M628,64.29c-2.81,0-5.71.11-8.62-.08a2.16,2.16,0,0,1-1.41-.83q-4.11-4.34-8.2-8.68a1.19,1.19,0,0,1,0-1.88l8.47-8.44a2.67,2.67,0,0,1,2-.67h6.7c.46,0,1-.09,1.28.41.33.66-.29,1-.66,1.38-1.94,1.89-3.85,3.79-5.9,5.58-3.46,3-2.78,2.66-.25,5.22a88.85,88.85,0,0,1,6.33,6.83A1,1,0,0,1,628,64.29Z"/><path class="cls-4" d="M641,64.28c-2.77,0-5.54,0-8.31,0a2.82,2.82,0,0,1-1.86-1c-2.9-2.63-5.26-5.77-8-8.52a1.27,1.27,0,0,1,0-2.06l8.3-8.27a2.64,2.64,0,0,1,2-.75c2.31,0,4.63,0,6.94,0,.46,0,1-.06,1.22.5s-.31.86-.62,1.2c-1.69,1.81-3.76,3.19-5.47,5-3.74,4-3.75,2.78,0,6.67,2.08,2.18,4.07,4.44,6.1,6.67C641.12,63.93,641.05,64.1,641,64.28Z"/><path class="cls-4" d="M653.91,64.29h-8.1a3.06,3.06,0,0,1-2.09-1c-2.86-2.66-5.34-5.68-8-8.52a1.28,1.28,0,0,1,.08-2.06c2.72-2.69,5.42-5.4,8.13-8.11a2.88,2.88,0,0,1,2.15-.87h6.7c.53,0,1.25-.13,1.41.56s-.43,1-.87,1.33c-2.36,1.67-4.2,3.9-6.26,5.89-2.46,2.37-2.35,2.15,0,4.62s4.73,5.1,7.09,7.65Z"/><path class="cls-4" d="M602.84,44.32c-2.71,2.7-5.4,5.4-8.12,8.09-1.56,1.53-1.59,1.53,0,3.11,2,2,4.06,4.07,6.09,6.12A13.15,13.15,0,0,1,602,63.07c.39.56.38,1.17-.45,1.19-2.72,0-5.43,0-8.14-.05a2.47,2.47,0,0,1-1.59-1c-2.52-2.67-5-5.36-7.54-8a1.56,1.56,0,0,1,.1-2.49l8.14-8.13a2.39,2.39,0,0,1,1.69-.81c2.77,0,5.55,0,8.33,0Z"/><path class="cls-2" d="M897.89,42.25c1.58-.11,2.87.75,4.27,1.26.46.16.85.52.68,1.07-.26.82-.49,1.74-1.38,2.09-.51.2-.83-.36-1.09-.73-.87-1.2-2-2.21-2.47-3.7Z"/><path class="cls-2" d="M945.77,119.9c-.59.82.23,2.71-1.08,2.87-1,.12-1-1.74-1.53-2.71-.25-.51-.7-1.23,0-1.73a2.07,2.07,0,0,1,2.06,0C945.84,118.57,945.82,119.17,945.77,119.9Z"/><polygon class="cls-2" points="897.9 42.24 897.82 42.16 897.89 42.25 897.9 42.24"/><path class="cls-1" d="M185,285.3c3.28-3.47,6.45-6.84,9.64-10.19.72-.74,1.59-1.34,2.33-2.07q8.51-8.44,17-16.93a31.52,31.52,0,0,1,2.85-2.56c1.12-.86,1.14-1.28.14-2.34-1.65-1.74-3.22-3.56-4.88-5.27q-6.69-6.87-13.28-13.83c-4.23-4.47-8.53-8.87-12.8-13.31a5.25,5.25,0,0,1-.63-.71c-.45-.68-.17-1.06.56-1.15a11.39,11.39,0,0,1,1.43-.05c9.52,0,19,0,28.56,0a4,4,0,0,1,3.84,1.91,8.8,8.8,0,0,0,1.07,1.3c3.91,4.1,7.9,8.14,11.74,12.31,4.88,5.28,9.72,10.59,14.76,15.72,1,1,1.86,2.19,2.84,3.24a1.27,1.27,0,0,1,0,2.06c-.4.39-.79.8-1.18,1.2Q234.57,269,220.18,283.46a6.19,6.19,0,0,1-4.83,2.06c-9.51-.09-19,0-28.55,0A3.77,3.77,0,0,1,185,285.3Z"/><path class="cls-1" d="M98.91,285.48a4.44,4.44,0,0,1,1.73-2.38c9.18-8.67,18.06-17.63,27-26.52,1.07-1.07,2.27-2,3.41-3,.92-.8.85-1.55,0-2.42-2.11-2.18-4.07-4.5-6.23-6.63-5.67-5.62-11-11.57-16.61-17.26-2.67-2.72-5.28-5.54-7.94-8.3a6.13,6.13,0,0,1-.65-.7c-.63-.83-.44-1.21.66-1.34a9.62,9.62,0,0,1,1.2,0c9.51,0,19,0,28.53,0a4.83,4.83,0,0,1,4,1.81c4.42,5,9.1,9.83,13.69,14.71s9.17,10,13.92,14.84c1,1,1.86,2.18,2.82,3.25a1.21,1.21,0,0,1-.1,1.89l-1,1c-9.71,9.72-19.45,19.41-29.13,29.17a5.94,5.94,0,0,1-4.62,2c-9.43-.08-18.85,0-28.28,0Z"/><path class="cls-1" d="M142.08,217.3a3.07,3.07,0,0,1,2.24-.4c9.35,0,18.7,0,28.05,0a5.54,5.54,0,0,1,4.43,1.84C182.59,224.75,188.21,231,194,237c4.19,4.37,8.23,8.9,12.43,13.28,1.69,1.76,1.71,2,0,3.68q-15,15-30,30a4.42,4.42,0,0,1-3.36,1.48c-9.83,0-19.66,0-29.49,0a2.15,2.15,0,0,1-1.36-.24c-.1-.83.56-1.14,1-1.56,5.81-5.82,11.51-11.77,17.52-17.39,4.09-3.82,8-7.8,12-11.68.46-.44.91-.9,1.34-1.37a1.41,1.41,0,0,0,0-2.13c-.21-.24-.43-.47-.65-.7-5.56-5.73-11.28-11.32-16.63-17.23-4.67-5.16-9.89-9.76-14.3-15.15A7.91,7.91,0,0,1,142.08,217.3Z"/><path class="cls-1" d="M257.68,216.87c.26,5,.09,9.91,0,14.87-1,.52-.81,1.46-.83,2.32-.1,4.22-.67,8.41-.6,12.63-2-.94-3.38-2.68-4.74-4.3-2.79-3.3-6-6.16-8.94-9.33q-6.15-6.69-12.61-13.09a11,11,0,0,1-2.12-3.06Z"/><path class="cls-1" d="M256.82,285.45H228.23c-.4-.73,0-1,.26-1.23,5.72-5.69,11.43-11.4,17.18-17.06,2.79-2.74,5.67-5.39,8.51-8.08a3.08,3.08,0,0,1,1.63-.95c0,.95,0,1.9.05,2.86,0,3.33-.22,6.69.13,10C256.49,275.8,256.11,280.65,256.82,285.45Z"/><path class="cls-4" d="M256.82,285.45c-.71-4.8-.33-9.65-.83-14.47-.35-3.3-.1-6.66-.13-10,0-1,0-1.91-.05-2.86.06-.6.13-1.21.19-1.81l1.69-.59c0,2.94.1,5.89.1,8.83q0,10.5,0,21c0,.63-.1,1.26-.15,1.89C256.76,287,257,286.18,256.82,285.45Z"/><path class="cls-4" d="M256.23,246.69c-.07-4.22.5-8.41.6-12.63,0-.86-.15-1.8.83-2.32.26,5.77.17,11.53,0,17.3l-1.31-.5C256.35,247.93,256.29,247.31,256.23,246.69Z"/><path class="cls-1" d="M256.4,248.54l1.31.5a59.72,59.72,0,0,1,0,6.69l-1.69.59a45.24,45.24,0,0,1-.13-6.27A2.2,2.2,0,0,1,256.4,248.54Z"/><path class="cls-1" d="M219.35,397.68c-.31.06-.5-.05-.51-.39Z"/><path class="cls-1" d="M328.33,44.24c-1.21,2.36-3,4.29-4.56,6.42a378.23,378.23,0,0,0-21.7,33.85c-4.33,7.65-8.33,15.46-12.1,23.4-3.69,7.78-7.2,15.65-10.16,23.76a8.1,8.1,0,0,1-1.58,3.19,10.55,10.55,0,0,1-2.26-4.17,63.62,63.62,0,0,1,.31-47.23,61.6,61.6,0,0,1,14.26-21.37,64,64,0,0,1,36.12-17.83A11.6,11.6,0,0,1,328.33,44.24Z"/><path class="cls-1" d="M1108.25,453.76c.45,0,.65.27.58.61a8.16,8.16,0,0,1-.46,1.34l-4.86,12c-.06.15-.12.29-.19.44-.78,1.6-1.25,1.72-2.34.38a35.1,35.1,0,0,0-2.67-3.05,1.17,1.17,0,0,1-.09-1.87q4.72-4.74,9.47-9.46A2.33,2.33,0,0,1,1108.25,453.76Z"/><path class="cls-2" d="M85,312.08c.45-.32.89-.67,1.37-.95,12.59-7.27,25.21-14.51,37.77-21.85a3.33,3.33,0,0,1,3.88,0q43.89,25.41,87.83,50.7a3.2,3.2,0,0,1,1.9,3.19q-.07,50.83,0,101.69a2.84,2.84,0,0,1-1.51,2.91q-39.79,22.89-79.55,45.88a6.47,6.47,0,0,1-.66.26c-.33-.8-.62-1.62-1-2.4s-.78-1.93-2-2.13a3.79,3.79,0,0,1,.54-.45q38.21-22.06,76.45-44.06a3.54,3.54,0,0,0,2.15-3.51q-.09-47.37,0-94.75a3.39,3.39,0,0,0-1.93-3.4Q169,319.54,127.94,295.74a3.33,3.33,0,0,0-3.88,0q-13.65,8-27.39,15.85c-3.67,2.11-7.37,4.17-11.06,6.25C84.82,316,85,314,85,312.08Z"/><path class="cls-6" d="M133,489.38c1.21.2,1.57,1.21,2,2.13s.66,1.6,1,2.4c-3,1.74-5.94,3.43-8.84,5.26-1.18.74-2,.09-2.83-.42q-11.54-6.63-23.05-13.29Q69,466.83,36.68,448.23a3.9,3.9,0,0,1-2.27-3.91q.09-50.35,0-100.72a3.91,3.91,0,0,1,2.31-3.89q23-13.15,45.9-26.43c.76-.44,1.56-.8,2.34-1.2,0,1.95-.13,3.93.66,5.8-.67.43-1.32.89-2,1.29C69.9,327.09,56.22,335,42.48,342.86A4.24,4.24,0,0,0,40,347.13q.12,46.88,0,93.76A4,4,0,0,0,42.32,445Q71,461.43,99.64,478c8.23,4.75,16.49,9.47,24.68,14.29a2.84,2.84,0,0,0,3.45,0C129.44,491.23,131.24,490.35,133,489.38Z"/><path class="cls-4" d="M258.88,216.84a4.15,4.15,0,0,1,3.39,1.44c3.91,4,7.68,8.11,11.37,12.31.15.18.32.35.49.52,3.92,4.09,7.93,8.11,11.73,12.31,2.25,2.49,4.57,4.9,6.89,7.32,1.15,1.21,1.11,1.58,0,2.83-.21.24-.45.46-.68.68q-14.83,14.83-29.65,29.68a4.33,4.33,0,0,1-3.56,1.6c0-.79-.11-1.59-.11-2.38q0-32,0-63.92C258.76,218.43,258.84,217.64,258.88,216.84Z"/><path class="cls-5" d="M83.24,119c0,7.11-.06,14.22,0,21.33a3.51,3.51,0,0,1-2,3.59q-18.72,10.68-37.34,21.56a3.35,3.35,0,0,1-3.88-.05Q21.43,154.58,2.71,143.89a3.36,3.36,0,0,1-1.91-3.4q.09-21.57,0-43.14A3.33,3.33,0,0,1,2.8,94Q21.51,83.3,40.13,72.44a3.35,3.35,0,0,1,3.88,0Q62.64,83.35,81.36,94a3.34,3.34,0,0,1,1.92,3.4C83.19,104.63,83.24,111.82,83.24,119Zm-2.47,0c0-6.87,0-13.75,0-20.63a2.82,2.82,0,0,0-1.65-2.82Q61.36,85.38,43.65,75.07a2.82,2.82,0,0,0-3.27,0Q22.67,85.39,4.88,95.58a2.82,2.82,0,0,0-1.61,2.84q.06,20.51,0,41a3,3,0,0,0,1.77,3q17.68,10.13,35.29,20.37a3,3,0,0,0,3.46,0q17.6-10.26,35.3-20.37a3,3,0,0,0,1.73-3C80.73,132.6,80.78,125.81,80.77,119Z"/><path class="cls-5" d="M1109.53,67.29c4.14-2.42,8.29-4.8,12.39-7.27,1.19-.71,2.07-.34,3.09.25q13.35,7.75,26.74,15.46c1.45.84,2.86,1.76,4.37,2.49a2.9,2.9,0,0,1,1.75,3c-.06,8.62,0,17.25,0,25.87,0,3.35,0,6.71,0,10.06a2.68,2.68,0,0,1-1.48,2.71c-8.38,4.79-16.74,9.64-25.11,14.45a5.66,5.66,0,0,1-1.11.42c0-.6,0-1.21,0-1.82.59-.39,1.17-.81,1.79-1.17,7.39-4.28,14.78-8.58,22.2-12.8a3,3,0,0,0,1.79-3q-.09-16.89,0-33.79a2.86,2.86,0,0,0-1.65-2.83q-14.76-8.43-29.45-17a2.78,2.78,0,0,0-3.23.06c-3.64,2.14-7.35,4.18-11,6.26A1.28,1.28,0,0,1,1109.53,67.29Z"/><path class="cls-2" d="M1130.15,132.94c0,.61,0,1.22,0,1.82l-6.69,4.24-.56-.07c-3.77-2.55-7.8-4.67-11.73-7-6.76-3.94-13.53-7.88-20.35-11.71a3.73,3.73,0,0,1-2.24-3.75q.14-17.39,0-34.76a3.7,3.7,0,0,1,2.24-3.74c6.28-3.48,12.48-7.13,18.71-10.72a1.27,1.27,0,0,0,1,1.39c-.26.18-.51.38-.78.54-5.81,3.35-11.61,6.72-17.43,10a2.66,2.66,0,0,0-1.74,2.53c.06,11.59,0,23.17,0,34.76a2.14,2.14,0,0,0,1.17,2.12q15.17,8.71,30.29,17.5a2.07,2.07,0,0,0,2.41-.08C1126.37,135,1128.27,134,1130.15,132.94Z"/><path class="cls-1" d="M1202.49,204.34a27.93,27.93,0,0,0,4.79-2.57,2.32,2.32,0,0,1,2.62,0,62.26,62.26,0,0,0,7.24,4,83.72,83.72,0,0,1,9.06,5.3,6.69,6.69,0,0,1-1,1q-8.33,4.83-16.68,9.62l-15.26-8.77c-.84-.48-1.73-.89-1.67-2.08A110.26,110.26,0,0,1,1202.49,204.34Z"/><path class="cls-5" d="M1191.55,210.81c-.06,1.19.83,1.6,1.67,2.08l15.26,8.77c0,5.77,0,11.55,0,17.32a4.72,4.72,0,0,0,.49,2.76l-.41.39q-6.84-4-13.69-7.91a5.57,5.57,0,0,0-1.94-.91c-1.19-.59-2.43-1-2.39-2.79.11-5.91.07-11.81.08-17.72C1190.6,212,1190.63,211.18,1191.55,210.81Z"/><path class="cls-5" d="M1226.44,210.26c.89-.31,1.41,0,1.48.94s0,1.75,0,2.63c0,5.5-.09,11,0,16.49a3.46,3.46,0,0,1-2.22,3.72c-1.65.78-3.21,1.75-4.82,2.64l-.54-.53c.83-.84,2.12-1,2.87-2l-.06,0c.84-.06,1.41-.72,2.14-1,1.43-.53,1.72-1.57,1.7-3-.07-5.82,0-11.65,0-17.47A3.14,3.14,0,0,0,1226.44,210.26Z"/><path class="cls-5" d="M1192.9,234.78c-3.69-1.85-3.69-1.85-3.69-5.85q0-8.22,0-16.44c0-2.5.81-3.28,3.56-3.52a.87.87,0,0,1-.56.72c-1.84.6-2.13,1.93-2.09,3.71.12,5.1.21,10.22,0,15.32-.1,2.52.43,4.3,2.91,5.2l.24.45Z"/><path class="cls-3" d="M1226.44,210.26a3.14,3.14,0,0,1,.6,2.46c0,5.82,0,11.65,0,17.47,0,1.43-.27,2.47-1.7,3-.73.27-1.3.93-2.14,1a4.1,4.1,0,0,1,1.87-1.42,2.52,2.52,0,0,0,1.4-2.52c0-5.72.11-11.45.16-17.17,0-.68.19-1.45-.47-2a83.72,83.72,0,0,0-9.06-5.3l.34-.39c2.25,1.3,4.48,2.62,6.75,3.88.73.41,1.35,1.13,2.32,1Z"/><path class="cls-3" d="M1193,233.92c-2.48-.9-3-2.68-2.91-5.2.21-5.1.12-10.22,0-15.32,0-1.78.25-3.11,2.09-3.71a.87.87,0,0,0,.56-.72l0-.13-.14,0a3.9,3.9,0,0,0,3.43-2l-.06.05c.47.55.88,0,1.23-.15,1.67-.92,3.32-1.9,5-2.85l.33.38a110.26,110.26,0,0,0-10.94,6.47c-.92.37-1,1.16-1,2,0,5.91,0,11.81-.08,17.72,0,1.83,1.2,2.2,2.39,2.79C1193,233.51,1193,233.71,1193,233.92Z"/><path class="cls-5" d="M1221,236.68c-3.71,2.18-7.41,4.38-11.15,6.52-1.5.85-2.31.53-4.16-1.4.79-.27,1.27.63,2,.5,1.45,1,2.2-.26,3.13-1l0,0a9.15,9.15,0,0,0,3.42-2l-.06,0c2.27-.78,4.09-2.44,6.31-3.32Z"/><path class="cls-5" d="M1226.55,210.25c-1,.15-1.59-.57-2.32-1-2.27-1.26-4.5-2.58-6.75-3.88-.92-1.1-2.41-1.37-3.42-2.33a3,3,0,0,0,.28-.34c4.07,1.91,7.83,4.37,11.73,6.58C1226.42,209.5,1226.7,209.78,1226.55,210.25Z"/><path class="cls-5" d="M1195.63,235.82a50.15,50.15,0,0,1,6.78,3.82l-.39.41a70.94,70.94,0,0,1-6.7-3.87A2.11,2.11,0,0,0,1195.63,235.82Z"/><path class="cls-5" d="M1202.16,204c-1.65.95-3.3,1.93-5,2.85-.35.2-.76.7-1.23.15,1.57-1.92,3.89-2.66,6-3.76l.32.36A1.37,1.37,0,0,0,1202.16,204Z"/><path class="cls-5" d="M1205.23,201.25c.46-.31.89-.66,1.37-.93,2.15-1.24,2.35-1.2,4.64.75-1.2.21-1.9-1.11-2.89-.77a22,22,0,0,0-2.77,1.33Z"/><path class="cls-5" d="M1205.58,201.63a16.51,16.51,0,0,1-3.33,1.93l-.32-.36a11.59,11.59,0,0,1,3.3-1.95Z"/><path class="cls-5" d="M1196,206.91a3.9,3.9,0,0,1-3.43,2A4.45,4.45,0,0,1,1196,206.91Z"/><path class="cls-3" d="M1210.79,241.34c-.93.7-1.68,2-3.13,1a.66.66,0,0,0,.88-.17l.41-.39C1209.62,241.87,1210.15,241.37,1210.79,241.34Z"/><path class="cls-5" d="M1214.06,203.06a4.57,4.57,0,0,1-2.07-1.37c1.14-.2,1.72.48,2.35,1A3,3,0,0,1,1214.06,203.06Z"/><path class="cls-5" d="M1195.32,236.18a10.24,10.24,0,0,1-2.42-1.4l.38-.41a7.4,7.4,0,0,1,2.35,1.45A2.11,2.11,0,0,1,1195.32,236.18Z"/><path class="cls-5" d="M1202.41,239.64l2.43,1.37a3.54,3.54,0,0,1-2.82-1Z"/><path class="cls-3" d="M413.79,139.34c-2.23.68-3.15,2.29-3.2,4.51,0,.8,0,1.6,0,2.4q0,122.94,0,245.87c0,4.37.44,3.62-3.68,3.69-1.83,0-3.67,0-5.51,0-.68,0-1.3,0-1.33.94s.54,1,1.25,1h7.2c2,0,2.07,0,2.07,1.93q0,13.2,0,26.39c0,1.81-.06,1.85-1.92,1.86q-20.26,0-40.54,0c-1.86,0-1.9,0-1.91-1.83q0-7.68,0-15.35c0-1.81.08-2.06,1.89-1.8,3.07.44,5.06-.94,7-3.05,2.87-3.12,5.94-6.05,9-9,.78-.76.95-1.26.11-2.14q-5.73-6-11.31-12.09a3.2,3.2,0,0,0-2.57-.92c-1.26,0-2.83.56-3.71-.29s-.38-2.58-.38-3.9q0-129.66,0-259.3c0-3.65,0-3.65,3.69-3.65H862.44c3.79,0,3.79,0,3.79,3.79V169c0,.64,0,1.28,0,1.92,0,1-.46,1.28-1.33,1.22a5.77,5.77,0,0,1-.72,0c-2.89-.51-4.94.66-6.85,2.81-2.77,3.1-5.85,5.91-8.78,8.86-1.4,1.41-1.41,1.45-.12,2.83,3.59,3.86,7.23,7.68,10.8,11.57a3.17,3.17,0,0,0,2.73,1.12c1-.06,2.08,0,3.12,0a1,1,0,0,1,1.14,1.18c0,.56,0,1.12,0,1.68q0,74.24,0,148.48c0,3.14.26,2.85-2.82,2.85H823.58c-1.78-.05-1.79-.05-1.84-1.94,0-.48,0-1,0-1.44V194.62a16.24,16.24,0,0,1,3.34,3.26,3.85,3.85,0,0,0,3.3,1.5c3.12-.1,6.24,0,9.36,0,.53,0,1.12.18,1.65-.29-.19-.82-.9-1.25-1.42-1.8-3.3-3.48-6.64-6.93-10-10.4-1.6-1.68-1.63-1.42.11-3.14,3.42-3.37,6.86-6.71,10.28-10.07.32-.32.77-.58.8-1.19-.51-.5-1.18-.26-1.77-.26-3,0-6.07,0-9.11,0a3.61,3.61,0,0,0-3.17,1.27c-.81,1-1.76,1.84-2.65,2.76-1-.68-.62-1.74-.63-2.63,0-7.12,0-14.23,0-21.34,0-2.8,0-5.6,0-8.4s-1-3.78-3.63-4.59c-.8,0-1.59-.1-2.39-.1H416.4A6.41,6.41,0,0,0,413.79,139.34Zm442.15,32.85H844c-.73,0-1.14.51-1.58,1-3.68,3.66-7.32,7.36-11,11-.87.85-1,1.39-.09,2.32,3.71,3.85,7.36,7.77,11,11.7a3.33,3.33,0,0,0,2.7,1.2c3.35-.05,6.71,0,10.06,0,.43,0,1,.17,1.21-.46a3.87,3.87,0,0,0-1.19-1.44c-3-3.13-6-6.21-8.92-9.37-.85-.9-2.44-1.64-2.25-2.87.15-1,1.49-1.75,2.31-2.62ZM397.4,396.76a4.55,4.55,0,1,0-4.65,4.42A4.5,4.5,0,0,0,397.4,396.76Z"/><path class="cls-3" d="M820.77,177.1c0,.91-.67,1.41-1.23,2-1.75,1.75-3.48,3.53-5.27,5.25-.73.7-.78,1.2,0,2,1.79,1.82,3.46,3.77,5.27,5.57a3.66,3.66,0,0,1,1.22,3.2,5.77,5.77,0,0,0,0,.72q0,77.33,0,154.67c0,3.54.34,3.12-3,3.12H746.93c-1,0-1.91,0-2.87,0a11.15,11.15,0,0,1,2.57-1.73A182.85,182.85,0,0,0,789.37,318a133.27,133.27,0,0,0,17.18-22.71,3.05,3.05,0,0,0-.29-4c-2.63-3.32-5.25-6.65-8.07-9.81A239,239,0,0,0,697.28,214a220.09,220.09,0,0,0-65.68-12.45c-7.91-.25-15.83-.17-23.74,0a12.46,12.46,0,0,1-3.11-.09c0-2,0-4,0-6a8.82,8.82,0,0,1,8.6-8.85c.88,0,1.76,0,2.64,0H798.83c.61,0,.81-.39.84-.93s-.18-1.1-.91-1.1H615.7c-1,0-2.09,0-3.12.1a10.73,10.73,0,0,0-9.82,10.56c0,1.6,0,3.2,0,4.8,0,.7.17,1.46-.46,2-4.63-.18-9.2.47-13.79.89a285.45,285.45,0,0,0-34.65,5.36c-.53-1.86-1.85-2.63-3.71-2.85s-3.78-.62-5.67-1c-2.6-.47-3.85-1.74-4.4-4.39a4.6,4.6,0,0,1,2.25-5.11c.8-.53,1.62-1,2.42-1.57a9.13,9.13,0,0,0,2.43-2.29c1.41-1.94,1.23-4.09-.18-6.49-1.23-2.08-3-1.76-4.81-1.39a25,25,0,0,0-5.38,2,4.81,4.81,0,0,1-3.71.38,5.8,5.8,0,0,1-3.44-8.33,24.75,24.75,0,0,0,1.8-3.91c.81-3,0-4.77-2.91-6.25-2.5-1.27-4-.85-5.92,1.71a32.54,32.54,0,0,1-3.69,4.41,5,5,0,0,1-6.57.37,5.76,5.76,0,0,1-2-3.2c-.62-2.08-.62-4.27-1.13-6.36,1.07-.8,2.31-.45,3.48-.45q152.26,0,304.52,0h1.2c2.16,0,2.15,0,2.19,2.3C820.71,169.6,820.47,173.35,820.77,177.1Zm-14.06,13a4.44,4.44,0,0,0,4.58-4.46A4.62,4.62,0,0,0,806.8,181a4.56,4.56,0,0,0-4.55,4.54A4.39,4.39,0,0,0,806.71,190.09Z"/><path class="cls-3" d="M739.57,355.57c4.08,0,8.15-.05,12.23-.05H818c2.93,0,2.69-.33,2.69,2.71q0,33.45,0,66.92v.72c0,2.07,0,2.07-2.12,2.09-.56,0-1.12,0-1.68,0H415.3c-3.66,0-3.66,0-3.66-3.69V400.76c0-.56,0-1.12,0-1.68,0-.87.28-1.36,1.24-1.3.72,0,1.44,0,2.16,0H592.58a15.73,15.73,0,0,0,3.81-.25,10.83,10.83,0,0,0,8.38-10.4c0-.88,0-1.75,0-2.63,1.76,0,3.52-.13,5.27-.11a305.24,305.24,0,0,0,52.56-3.86,257.52,257.52,0,0,0,57.67-15.85A163.7,163.7,0,0,0,739.57,355.57Zm54.22,33.85,0-.53-19.67-7.29c.33,2.69,5.2,18.29,6.2,20,1.51-1.75,2.3-4,4-5.74,1.67,1.78,3.23,3.48,4.84,5.13.72.73,1.27,2.08,2.25,2,1.24-.13,1.93-1.53,2.89-2.35.49-.42.29-.84-.07-1.22-.88-.93-1.76-1.86-2.63-2.8-1.22-1.31-2.44-2.64-3.82-4.14Z"/><path class="cls-3" d="M602.74,384.39c0,1,.1,2.08,0,3.11a8.89,8.89,0,0,1-8.42,8.3c-.8.05-1.6,0-2.4,0H414.25c-2.64,0-2.61.33-2.61-2.59V165.7c0-.72.09-1.43.13-2.15H491c2.95,0,5.9,0,8.85,0q-.55,3.79-1.1,7.58a3,3,0,0,1-.64,1.53,5.61,5.61,0,0,1-8.21.11c-1.34-1.59-2.59-3.25-3.9-4.86a3.61,3.61,0,0,0-4.65-1.35,10.53,10.53,0,0,0-1.94.94c-2.15,1.3-2.69,2.69-1.86,5,.72,2,1.48,4.06,2.36,6a3.64,3.64,0,0,1-.54,4.22c-.41.49-.84,1-1.28,1.42a4,4,0,0,1-5,1c-2-.87-4-1.63-6-2.39s-3-.44-4.23,1.11a12.11,12.11,0,0,0-1.33,2c-1.23,2.28-1,3.53,1.06,5.21q2.49,2.07,5,4.11a4.12,4.12,0,0,1,1.75,2.49,6,6,0,0,1-4.66,6.51c-2,.37-4.1.66-6.14,1s-2.84,1.27-3,3.4a12.86,12.86,0,0,0,0,2.15c.18,2.23,1,3.17,3.14,3.6,1.8.36,3.61.69,5.43.94,2.7.37,4.54,1.4,5,4.48.41,2.64.45,3.28-1.67,4.92-1.51,1.18-3,2.35-4.5,3.58-2.05,1.73-2.34,3.36-1.11,5.72,1.5,2.88,3.24,3.55,6.33,2.44,1.95-.7,3.86-1.55,5.85-2.12a4.59,4.59,0,0,1,5.7,3.53c-.62-.05-1,.37-1.5.66a176.61,176.61,0,0,0-40.57,35.27,126.69,126.69,0,0,0-11.92,16.8,2.7,2.7,0,0,0,.25,3.62c1.87,2.19,3.54,4.54,5.41,6.73a236.91,236.91,0,0,0,79.37,60.8C539.83,375.67,570.45,383.46,602.74,384.39Z"/><path class="cls-1" d="M604.75,201.44a12.46,12.46,0,0,0,3.11.09c7.91-.17,15.83-.25,23.74,0A220.09,220.09,0,0,1,697.28,214a239,239,0,0,1,100.91,67.49c2.82,3.16,5.44,6.49,8.07,9.81a3.05,3.05,0,0,1,.29,4A133.27,133.27,0,0,1,789.37,318a182.85,182.85,0,0,1-42.74,33.76,11.15,11.15,0,0,0-2.57,1.73c-.88,0-1.76.07-2.63.07H684a6.46,6.46,0,0,1-3-.33,4.53,4.53,0,0,1,2.15-1,183.65,183.65,0,0,0,44.06-18.58,144.67,144.67,0,0,0,29.33-22.62c2.2-2.22,4.28-4.53,6.31-6.89a73.24,73.24,0,0,0,6.66-9.08c1.1-1.77,1.07-2.15-.31-3.8-1.69-2-3.34-4.09-5.13-6a178.46,178.46,0,0,0-16.26-15.22,196.94,196.94,0,0,0-19.54-14.27,200.4,200.4,0,0,0-41.93-20.44,196.68,196.68,0,0,0-37.65-9.26,14.59,14.59,0,0,0-4.44-.46c.2.81.84.87,1.32,1.07a76.45,76.45,0,0,1,40.31,40.7,71.79,71.79,0,0,1-10.61,72.09,72.29,72.29,0,0,1-12.35,12.31c-.61.48-1.38.86-1.54,1.76H624.51a12.69,12.69,0,0,1-2.14-.12c-3.11-.52-4.64-2.2-4.67-5.37-.05-6.14,0-12.28,0-18.41,1.24-.27,2.5-.49,3.73-.82a35.54,35.54,0,0,0,23.41-18.94c3.28-6.46,4.1-13.35,3.44-20.47.59-.64,1.22-1.25,1.78-1.92,3.7-4.5,4.67-9.56,2.56-15s-6.22-8.48-12-9.25a17.42,17.42,0,0,0-7.93,1.17,7.08,7.08,0,0,0-2.86-2.11,35.35,35.35,0,0,0-15.09-4.28c-2.14-.1-2.28-.27-2.35-2.4,0-.56,0-1.12,0-1.67V223.34c0-.64,0-1.28,0-1.92,0-1.09-.42-1.61-1.6-1.48a8.37,8.37,0,0,1-6.07-1.73Q604.74,209.83,604.75,201.44Z"/><path class="cls-3" d="M277,472.87c0-5.67,0-11.33.08-17,0-.85-.26-1.76.29-2.56,1.28,0,2.56.09,3.83.09H569.4c1.36,0,2.72,0,4.08,0a17.64,17.64,0,0,0,.55,2.08c1.25,3.07,3.43,5,6.83,5.2.8.06,1.6.07,2.4.07H649c.64,0,1.28,0,1.92,0,3.9-.2,6.48-2.09,7.56-5.83.38-1.34.93-1.9,2.3-1.73a13.66,13.66,0,0,0,1.92,0H951.77c4.08,0,3.54-.45,3.57,3.58,0,5.36,0,10.71.07,16.07a9.77,9.77,0,0,1-3.1.19H279.86A8.55,8.55,0,0,1,277,472.87Z"/><path class="cls-6" d="M648.31,289.45c.66,7.12-.16,14-3.44,20.47a35.54,35.54,0,0,1-23.41,18.94c-1.23.33-2.49.55-3.73.82,0-4.48,0-9-.09-13.43a3.52,3.52,0,0,1,1.63-3,3.76,3.76,0,0,0,.41-5.33,3.52,3.52,0,0,0-4.95-.48c-1.53,1.23-2.08,3.76-.64,5.13,1.73,1.63,1.65,3.48,1.64,5.47,0,4,0,8,0,12-.4,0-.8,0-1.2,0-2,.13-2,.19-2.1,2.06,0,.56,0,1.12,0,1.68q0,15.8,0,31.59c0,.64,0,1.28,0,1.92,0,1.1-.42,1.66-1.61,1.37a9.52,9.52,0,0,0-6,.87q0-26.58-.05-53.18a3.64,3.64,0,0,1,1.49-3.27,3.18,3.18,0,0,0,.93-4.08,3.57,3.57,0,0,0-3.36-2.31,3.67,3.67,0,0,0-3.38,2.28,3,3,0,0,0,.76,3.9c1.7,1.21,1.66,2.72,1.66,4.41q0,25.88,0,51.74a8.61,8.61,0,0,1-.47,3.77c-.22.69-.49,1.36-.64,2.06-1,4.49-1.92,4.37-6,4.15a8,8,0,0,1-1.18-.16c-2.34-.53-3.22-1.59-3.24-4,0-2,.08-4,0-6s-.8-3.11-2.63-3.52a36.62,36.62,0,0,1-7-2.92c-5.11-2.36-8.39-1.47-11.54,3.12-.09.13-.17.27-.27.4-1.24,1.73-2.42,2.1-4.29,1.11a24.5,24.5,0,0,1-3.4-2.22c-1.77-1.37-1.94-2.41-.72-4.3a11.16,11.16,0,0,0,2-4.55,6.53,6.53,0,0,0-1.37-5.18,34,34,0,0,0-5.51-6c-3.65-3.32-6-3.53-10.39-1-2.84,1.62-4.41,1.31-6.33-1.33a11.8,11.8,0,0,1-1.22-2c-1-2.11-.67-3.4,1.2-4.79a20.36,20.36,0,0,0,2.92-2.48,6.37,6.37,0,0,0,1.18-7.13,14,14,0,0,0-1.41-2.5,10.08,10.08,0,0,1-1.44-3.27c-1.15-4.72-3.11-6.06-7.91-5.4-.24,0-.47.1-.71.13-4,.59-5.47-.47-6.16-4.39a10.25,10.25,0,0,1-.15-1.66,3.86,3.86,0,0,1,2.88-4.19c1-.39,2.16-.59,3.21-1,3.48-1.26,4.9-3.64,4.26-7.28a9,9,0,0,1,0-3.55,14.39,14.39,0,0,0,.21-2.86,6.83,6.83,0,0,0-4.6-6.89c-1.17-.48-2.45-.71-3.67-1.09a2.74,2.74,0,0,1-2.31-2.93,11.8,11.8,0,0,1,.94-4.91,3,3,0,0,1,3.65-2,19.52,19.52,0,0,0,3.57.33,6.77,6.77,0,0,0,5.29-2.42,22.12,22.12,0,0,0,4.88-10.79,6.2,6.2,0,0,0-2.52-6.11c-.44-.35-.89-.68-1.34-1-2.71-2.06-3.06-3.86-1.33-6.81a10.06,10.06,0,0,1,1.1-1.57,3.73,3.73,0,0,1,4.93-1.07c.94.45,1.79,1.05,2.71,1.54,4,2.09,7.2,1.44,9.92-2.12a14,14,0,0,1,3.24-3.13c3.75-2.55,4.19-5.58,1.5-9.41-.41-.86-.87-1.7-1.24-2.58a4.62,4.62,0,0,1-.09-3.73A5.87,5.87,0,0,1,571,222c.45.55.86,1.15,1.3,1.71,2.84,3.68,5.87,4.28,9.76,1.85a10.29,10.29,0,0,1,4-1.5c3.65-.55,5.26-2.45,5.28-6.16,0-1.91-.1-3.82-.08-5.73a3.81,3.81,0,0,1,2.75-3.79,9.14,9.14,0,0,1,3.52-.58,3.72,3.72,0,0,1,3.75,2.76c.37,1.13.71,2.28,1.07,3.42a16,16,0,0,1,.48,4.26q0,31.16,0,62.3c0,1.81-.2,3.27-1.73,4.67a3.42,3.42,0,0,0,1.8,5.9,3.75,3.75,0,0,0,4.1-1.8,3.26,3.26,0,0,0-.65-4.17,4.49,4.49,0,0,1-1.74-3.44q.11-31.74.09-63.5a8.37,8.37,0,0,0,6.07,1.73c1.18-.13,1.62.39,1.6,1.48,0,.64,0,1.28,0,1.92V254c0,.55,0,1.11,0,1.67.07,2.13.21,2.3,2.35,2.4a35.35,35.35,0,0,1,15.09,4.28,7,7,0,0,1,2.85,2.11l-1.39.9a14.69,14.69,0,0,0,11.42,26.71A23.91,23.91,0,0,0,648.31,289.45Z"/><path class="cls-3" d="M500.54,162.33l-22.3,0H415.4c-.64,0-1.28,0-1.92,0-1.79,0-1.83-.05-1.83-1.9,0-5.43,0-10.87,0-16.3a4.12,4.12,0,0,1,1.6-3.56,12.55,12.55,0,0,1,4.27-.38H816.26c3.25,0,4.36,1.09,4.37,4.28,0,4.8,0,9.59,0,14.39,0,3.79.52,3.37-3.26,3.37q-152.83,0-305.67,0c-1.12,0-2.23-.06-3.35-.1l-.1-.09c0-.27-.16-.38-.42-.35l-.11-.07a.7.7,0,0,0-.86-.41l-.14,0a5.17,5.17,0,0,0-4.57,0A2.87,2.87,0,0,0,500.54,162.33Zm-43.87-5.89a4.43,4.43,0,0,0,4.42-4.4,4.35,4.35,0,0,0-4.25-4.29,4.28,4.28,0,0,0-4.5,4.24A4.34,4.34,0,0,0,456.67,156.44Zm-25.74-4.36a4.31,4.31,0,0,0-4.41-4.34,4.22,4.22,0,0,0-4.26,4.22,4.29,4.29,0,0,0,4.26,4.48A4.36,4.36,0,0,0,430.93,152.08Zm14.92-.05a4.31,4.31,0,0,0-4.46-4.29,4.24,4.24,0,0,0-4.21,4.27,4.3,4.3,0,0,0,4.31,4.43A4.36,4.36,0,0,0,445.85,152Z"/><path class="cls-4" d="M661.34,353.58c.16-.9.93-1.28,1.54-1.76a72.29,72.29,0,0,0,12.35-12.31,71.79,71.79,0,0,0,10.61-72.09,76.45,76.45,0,0,0-40.31-40.7c-.48-.2-1.12-.26-1.32-1.07a14.59,14.59,0,0,1,4.44.46,196.68,196.68,0,0,1,37.65,9.26,200.4,200.4,0,0,1,41.93,20.44,196.94,196.94,0,0,1,19.54,14.27A178.46,178.46,0,0,1,764,285.3c1.79,1.92,3.44,4,5.13,6,1.38,1.65,1.41,2,.31,3.8a73.24,73.24,0,0,1-6.66,9.08c-2,2.36-4.11,4.67-6.31,6.89a144.67,144.67,0,0,1-29.33,22.62,183.65,183.65,0,0,1-44.06,18.58,4.53,4.53,0,0,0-2.15,1l-1.78.1-.59.24Z"/><path class="cls-1" d="M563.37,356a11.16,11.16,0,0,1-2,4.55c-1.22,1.89-1.05,2.93.72,4.3a24.5,24.5,0,0,0,3.4,2.22c1.87,1,3,.62,4.29-1.11.1-.13.18-.27.27-.4,3.15-4.59,6.43-5.48,11.54-3.12a36.62,36.62,0,0,0,7,2.92c1.83.41,2.59,1.61,2.63,3.52s-.06,4,0,6c0,2.42.9,3.48,3.24,4a8,8,0,0,0,1.18.16c4.1.22,5,.34,6-4.15.15-.7.42-1.37.64-2.06a2.8,2.8,0,0,1,.47,2c0,3.17,0,6.34,0,9.52-32.29-.93-62.91-8.72-92-22.55A236.91,236.91,0,0,1,431.36,301c-1.87-2.19-3.54-4.54-5.41-6.73a2.7,2.7,0,0,1-.25-3.62,126.69,126.69,0,0,1,11.92-16.8,176.61,176.61,0,0,1,40.57-35.27c.46-.29.88-.71,1.5-.66,1.23,1,.71,2.32.41,3.53-.5,2-1.55,3.84-2.21,5.8-.77,2.29,0,4,2.42,5.28s4.28,1.12,5.82-.64c1.05-1.2,2.07-2.42,3.05-3.68,3-3.85,3.05-3.33,7.48-2.13a2.84,2.84,0,0,1,2.23,2.5c.28,1.88.49,3.78.72,5.67a138.66,138.66,0,0,0-19.55,14.6,118.17,118.17,0,0,0-13.15,13.6,67,67,0,0,0-6,8.34,2.81,2.81,0,0,0,.34,3.68c1.36,1.57,2.81,3.06,4.14,4.64,5.23,6.2,11.32,11.49,17.46,16.71a193.78,193.78,0,0,0,21.35,15.41,189.71,189.71,0,0,0,23.22,12.45A204.84,204.84,0,0,0,558,354.78,30.42,30.42,0,0,0,563.37,356Z"/><path class="cls-6" d="M499.61,254.29c-.23-1.89-.44-3.79-.72-5.67a2.84,2.84,0,0,0-2.23-2.5c-4.43-1.2-4.48-1.72-7.48,2.13-1,1.26-2,2.48-3.05,3.68-1.54,1.76-3.44,1.95-5.82.64s-3.19-3-2.42-5.28c.66-2,1.71-3.78,2.21-5.8.3-1.21.82-2.48-.41-3.53a4.59,4.59,0,0,0-5.7-3.53c-2,.57-3.9,1.42-5.85,2.12-3.09,1.11-4.83.44-6.33-2.44-1.23-2.36-.94-4,1.11-5.72,1.47-1.23,3-2.4,4.5-3.58,2.12-1.64,2.08-2.28,1.67-4.92-.48-3.08-2.32-4.11-5-4.48-1.82-.25-3.63-.58-5.43-.94-2.16-.43-3-1.37-3.14-3.6a12.86,12.86,0,0,1,0-2.15c.18-2.13.95-3,3-3.4s4.1-.67,6.14-1a6,6,0,0,0,4.66-6.51,4.12,4.12,0,0,0-1.75-2.49q-2.51-2-5-4.11c-2-1.68-2.29-2.93-1.06-5.21a12.11,12.11,0,0,1,1.33-2c1.27-1.55,2.35-1.83,4.23-1.11s4,1.52,6,2.39a4,4,0,0,0,5-1c.44-.46.87-.93,1.28-1.42a3.64,3.64,0,0,0,.54-4.22c-.88-2-1.64-4-2.36-6-.83-2.35-.29-3.74,1.86-5a10.53,10.53,0,0,1,1.94-.94A3.61,3.61,0,0,1,486,168c1.31,1.61,2.56,3.27,3.9,4.86a5.61,5.61,0,0,0,8.21-.11,3,3,0,0,0,.64-1.53q.54-3.78,1.1-7.58l.21-.42.49-.84a2.87,2.87,0,0,1,1.61-1.07l4.57,0,.14,0a.89.89,0,0,0,.86.41l.1.07.43.35.1.09a3.61,3.61,0,0,1,.9,1.86c.51,2.09.51,4.28,1.13,6.36a5.76,5.76,0,0,0,2,3.2,5,5,0,0,0,6.57-.37,32.54,32.54,0,0,0,3.69-4.41c1.94-2.56,3.42-3,5.92-1.71,2.89,1.48,3.72,3.29,2.91,6.25a24.75,24.75,0,0,1-1.8,3.91,5.8,5.8,0,0,0,3.44,8.33,4.81,4.81,0,0,0,3.71-.38,25,25,0,0,1,5.38-2c1.86-.37,3.58-.69,4.81,1.39,1.41,2.4,1.59,4.55.18,6.49a9.13,9.13,0,0,1-2.43,2.29c-.8.53-1.62,1-2.42,1.57a4.6,4.6,0,0,0-2.25,5.11c.55,2.65,1.8,3.92,4.4,4.39,1.89.35,3.77.73,5.67,1s3.18,1,3.71,2.85c0,.8,0,1.59,0,2.39-.08,2.8-1,3.84-3.71,4.34-1.88.34-3.77.6-5.63,1s-3.47,1.36-4,3.36a5.16,5.16,0,0,0,1.58,5.64c1.41,1.17,2.83,2.31,4.28,3.42s2.52,2.63,2.09,4.7c-.45.75-.87,1.52-1.37,2.23-1.42,2-2.84,2.45-5.15,1.6-.82-.3-1.63-.63-2.45-.94l-3.76-1.48a2.51,2.51,0,0,0-2.09-.06c-2.19,1.06-4.13,2.38-4.63,5a4,4,0,0,0,.58,2.28c.72,1.85,1.49,3.7,2.1,5.6.8,2.51,0,4.14-2.74,5.61-2.34,1.27-3.7,1-5.45-1-1.44-1.7-2.82-3.46-4.2-5.21-.67-.85-1.44-1.66-2.57-1.47A12.05,12.05,0,0,0,511.8,247a3,3,0,0,0-1.24,2.23c-.31,2.13-.68,4.25-1,6.38s-1,2.87-3.21,3.14a12,12,0,0,1-2.39.07c-2.42-.2-3.1-.8-3.82-3.2A12.63,12.63,0,0,0,499.61,254.29ZM504.72,216c3.68,0,5.84-2.15,5.91-6,.06-3.61-2.26-6-5.92-6a5.8,5.8,0,0,0-6,6.05C498.64,213.54,501.07,216,504.72,216Z"/><path class="cls-3" d="M821.74,391.64V358.8c0-.48,0-1,0-1.44.06-1.79.06-1.83,1.92-1.83q20.13,0,40.27,0c2.28,0,2.29,0,2.29,2.4q0,27.81,0,55.61c0,4.23,0,8.47,0,12.7,0,1.67-.06,1.72-1.77,1.72q-20.38,0-40.75,0c-1.91,0-2,0-2-2Q821.74,408.78,821.74,391.64Z"/><path class="cls-1" d="M604.73,369.57a9.52,9.52,0,0,1,6-.87c1.19.29,1.62-.27,1.61-1.37,0-.64,0-1.28,0-1.92q0-15.8,0-31.59c0-.56,0-1.12,0-1.68.08-1.87.14-1.93,2.1-2.06.4,0,.8,0,1.2,0,0,6.14,0,12.28,0,18.43a6.77,6.77,0,0,0,4.73,6.74,9.15,9.15,0,0,0,3.08.3h29.69c1.11,0,2.22.11,3.34.17-.28,1.28-1.88,1.31-2.51,2.42a2.64,2.64,0,0,0,2,.18c2.57-.45,5.16-.83,7.71-1.38,1.76-.37,3.62-.42,5.24-1.37h70.59a163.7,163.7,0,0,1-19.27,9.11,257.52,257.52,0,0,1-57.67,15.85,305.24,305.24,0,0,1-52.56,3.86c-1.75,0-3.51.07-5.27.11Q604.77,377,604.73,369.57Z"/><path class="cls-1" d="M803.28,92.46a11,11,0,0,1,.45-2.59,81.51,81.51,0,0,1,11-22.5,52,52,0,0,1,6.17-7c2.58-2.51,5.06-5.11,7.86-7.39,1.84-1.5,2.52-1.51,3.68.63,2,3.57,4,7.09,6.07,10.6,4.11,7,8.17,14.11,12.25,21.16,1.23,2.14,1.2,2.31-.42,4.16a6.88,6.88,0,0,0-1.87,3c-11.81,0-23.62.06-35.43,0C809.82,92.59,806.55,92.76,803.28,92.46Z"/><path class="cls-1" d="M509.25,164a3.61,3.61,0,0,0-.9-1.86c1.12,0,2.23.1,3.35.1q152.84,0,305.67,0c3.78,0,3.23.42,3.26-3.37,0-4.8,0-9.59,0-14.39,0-3.19-1.12-4.25-4.37-4.28H417.5a12.55,12.55,0,0,0-4.27.38,1.76,1.76,0,0,1,1.3-.67c1.2,0,2.4,0,3.6,0h396l2.63,0a1.52,1.52,0,0,0,1.41-.75c2.63.81,3.56,1.91,3.63,4.59s0,5.6,0,8.4c0,7.11,0,14.22,0,21.34,0,.89-.39,1.95.63,2.63-.34.77-1.12.71-1.74.92-.3-3.75-.06-7.5-.13-11.25,0-2.26,0-2.27-2.19-2.3h-1.2q-152.25,0-304.52,0C511.56,163.57,510.32,163.22,509.25,164Z"/><path class="cls-3" d="M616.35,453.23h38.82c2.72,0,3.09.65,1.68,3a6.51,6.51,0,0,1-5.65,3.48l-2.39,0H583.38a25,25,0,0,1-2.87-.09,6.85,6.85,0,0,1-5.69-5.13c-.24-1,.09-1.33,1-1.3.64,0,1.28,0,1.92,0Z"/><path class="cls-2" d="M818.21,139.22a1.52,1.52,0,0,1-1.41.75l-2.63,0h-396c-1.2,0-2.4,0-3.6,0l-.74-.59a6.41,6.41,0,0,1,2.61-.22H815.82C816.62,139.12,817.41,139.19,818.21,139.22Z"/><path class="cls-6" d="M866.31,182.84c2.39-2.34,4.77-4.68,7.17-7,4.35-4.23,2.47-3.47,8.69-3.56l7.16-.06c.52.15.57.45.3.89s-.37.69-.55,1a3.33,3.33,0,0,0-.84.43c-3.31,3.1-6.63,6.2-9.89,9.35-1.21,1.17-1.15,1.41.11,2.73,2.95,3.12,6.25,5.92,8.88,9.35a3.5,3.5,0,0,0,1.71,1.26c.34.61.67,1.23,1,1.84-3.73,0-7.47,0-11.21.05a3.7,3.7,0,0,1-3.29-1.55,59.93,59.93,0,0,0-6.36-6.77c-.93-.93-1.33-2.43-2.85-2.75-.06-.14-.12-.29-.19-.43-.41-1-1.89-1.41-1.68-2.42S865.67,183.63,866.31,182.84Z"/><path class="cls-6" d="M342.3,408.38a3.6,3.6,0,0,0,1-1.46,3.7,3.7,0,0,0,1.57-1c2.87-2.87,5.75-5.71,8.59-8.6,1.46-1.48,1.47-1.86,0-3.33-2.83-2.9-5.72-5.75-8.58-8.61a3.72,3.72,0,0,0-1.56-1.06,5.48,5.48,0,0,0-.93-1.63c-.44-.75.25-.69.67-.8,3.42,0,6.84.11,10.25.06A3.83,3.83,0,0,1,357,383.7a27.44,27.44,0,0,0,3.55,3.84,31.52,31.52,0,0,1,3.68,4.06,2.94,2.94,0,0,0,1.87,1.38c.05.15,0,.35.14.44,1.9,1.66,1.72,3.25-.12,4.81a4.21,4.21,0,0,0-2.1,1.49c-2.63,2.64-5.28,5.27-7.87,7.94a2.93,2.93,0,0,1-2.24,1.13c-3.41,0-6.82,0-10.23,0A2.41,2.41,0,0,1,342.3,408.38Z"/><path class="cls-2" d="M277,472.87a8.55,8.55,0,0,0,2.85.21H952.31a9.77,9.77,0,0,0,3.1-.19c-.29.58-.86.66-1.42.75-1.12,0-2.24,0-3.36,0H281.55c-1,0-2.08,0-3.12,0C277.87,473.54,277.3,473.46,277,472.87Z"/><path class="cls-4" d="M573.48,453.44c-1.36,0-2.72,0-4.08,0H281.21c-1.27,0-2.55-.06-3.83-.09.94-.67,2-.38,3-.38q33.09,0,66.18,0,111.74,0,223.47,0C571.19,452.94,572.45,452.49,573.48,453.44Z"/><path class="cls-1" d="M889.08,174.14c.18-.35.35-.71.55-1s.22-.74-.3-.89c-.14-6.24-.19-12.47,0-18.7.84.31,1.11,1.09,1.5,1.78q4,7.07,8,14.11c.56,1,1.27,1.83,1.9,2.74-.55,0-1.1.09-1.65.09-5.56.07-5.56.07-9.3,4.19a1.24,1.24,0,0,0-.14.18C889.07,175.89,889.34,175,889.08,174.14Z"/><path class="cls-4" d="M890.05,199.1c-.33-.61-.66-1.23-1-1.84.08-1,.15-1.94.23-2.9,1.85,1.34,3.09,3.3,4.76,4.82a4,4,0,0,0,2.53.44c2.38,0,4.76,0,7.3,0-2.2,1.55-10.37,3.64-14.59,3.81C889.32,202,888.72,200.36,890.05,199.1Z"/><path class="cls-1" d="M500.05,163.17l-.21.42c-2.95,0-5.9,0-8.85,0H411.77c.58-.58,1.33-.46,2-.46h85.28C499.41,163.1,499.73,163.15,500.05,163.17Z"/><path class="cls-3" d="M866.31,182.84c-.64.79-1.65,1.5-1.84,2.39s1.27,1.47,1.68,2.42c.07.14.13.29.19.43-.07.87-.14,1.75-.22,2.77-1.39-.52-2-1.76-3-2.67s-2.4-1.7-2.41-2.83c0-1.28,1.66-2,2.55-3s1.69-1.63,2.79-2.67C866.18,181,866.25,181.92,866.31,182.84Z"/><path class="cls-3" d="M366.09,398.23c1.84-1.56,2-3.15.12-4.81-.1-.09-.09-.29-.14-.44l.21-2.35c.62-.37.86.2,1.14.49,1.22,1.24,2.38,2.54,3.62,3.76.62.61.8,1.08.09,1.75-1.5,1.39-3,2.84-4.59,4.41C366,400,366.36,399.07,366.09,398.23Z"/><path class="cls-4" d="M669,355.56c-1.62.95-3.48,1-5.24,1.37-2.55.55-5.14.93-7.71,1.38a2.64,2.64,0,0,1-2-.18c.63-1.11,2.23-1.14,2.51-2.42A96.8,96.8,0,0,1,669,355.56Z"/><path class="cls-1" d="M678.59,353.59l.59-.24Z"/><path class="cls-6" d="M894,199.18c-1.67-1.52-2.91-3.48-4.76-4.82a102.68,102.68,0,0,0-7-7.75c-1.28-1.24-1.27-1.5-.07-2.71,2.46-2.47,4.83-5,7.49-7.3a1.24,1.24,0,0,1,.14-.18c3.74-4.12,3.74-4.12,9.3-4.19.55,0,1.1-.06,1.65-.09l6.2.15c0,.14,0,.28,0,.43-3.82,3.73-7.66,7.44-11.46,11.19-1.33,1.32-1.35,1.47-.15,2.72,3.86,4,7.76,8,11.64,12-.72.72-1.64.48-2.49.49C901,199.17,897.53,199.17,894,199.18Z"/><path class="cls-5" d="M942.07,354.22a4.51,4.51,0,0,1-4.39,4.67,4.76,4.76,0,0,1-4.71-4.47,4.61,4.61,0,0,1,4.47-4.64A4.49,4.49,0,0,1,942.07,354.22Z"/><path class="cls-2" d="M991.05,270.58c-.74,12.11-6.18,21.87-17.56,27.95-3.4,1.82-4,1.5-3.55-2.2.57-4.83.66-9.69,1.28-14.51q0-.36.06-.72c.27-10,.79-20.09.45-30.14-.08-2.38-.49-4.76-.41-7.16,0-.4,0-.8,0-1.19.11-1.59.54-1.91,1.93-1.21a31.7,31.7,0,0,1,6.91,4.7,32.33,32.33,0,0,1,10.69,20.81C991,267.94,991,269,991.05,270.58Z"/><path class="cls-1" d="M674.93,506.17c4.89-.3,8.41,3.49,8.45,8.35A8.56,8.56,0,0,1,675,523c-3.63-.05-8.56-3-8.43-8.6A8,8,0,0,1,674.93,506.17Z"/><path class="cls-6" d="M291.76,381.9h11.65a2.78,2.78,0,0,1,2.06,1.06c3.64,3.91,7.26,7.84,10.91,11.73.76.8.82,1.43,0,2.23q-5.52,5.47-11,11a2.55,2.55,0,0,1-1.88.9c-3.75,0-7.5,0-11.25-.05-.12,0-.23-.18-.39-.32.13-.85.89-1.25,1.42-1.79,3.22-3.21,6.47-6.39,9.69-9.61,1.31-1.3,1.3-1.35,0-2.67-3.24-3.41-6.51-6.8-9.75-10.22A4,4,0,0,1,291.76,381.9Z"/><path class="cls-6" d="M308.64,408.84a3.45,3.45,0,0,1,1.51-2.19c3.09-3,6.22-6,9.31-9,1.84-1.8,1.81-1.82,0-3.74q-5-5.19-9.94-10.4c-.33-.34-.61-.72-.88-1.05.36-.79,1-.56,1.51-.57,3.12,0,6.23,0,9.35,0a4,4,0,0,1,3.16,1.38c3.37,3.63,6.81,7.2,10.19,10.82,1.46,1.58,1.44,1.79-.09,3.33-3.32,3.35-6.69,6.65-10,10a4.31,4.31,0,0,1-3.37,1.45C315.86,408.79,312.35,408.84,308.64,408.84Z"/><path class="cls-6" d="M342.68,404.37a4.16,4.16,0,0,0-.53.49c-2.45,3.49-5.84,4.54-10,4-2.18-.28-4.41.13-6.63-.19-.06-.89.58-1.23,1-1.61,3.5-3,6.65-6.43,10-9.66,1.59-1.55,1.56-1.59,0-3.23-3.24-3.4-6.5-6.79-9.74-10.2-.48-.51-1.12-.9-1.31-1.67.36-.64,1-.41,1.49-.42,3.11,0,6.22,0,9.33,0a3.78,3.78,0,0,1,3.15,1.36c1,1.2,2.17,2.34,3.25,3.5q3.29,3.43,6.56,6.85c1.89,1.95,1.9,2.13.06,4Z"/><path class="cls-4" d="M301.91,335.85c-2.09,0-2.37-.24-2.42-2.29,0-1.68,0-3.36,0-5,0-1.2-.56-1.75-1.75-1.75-1.68,0-3.36,0-5,0s-1.84-.42-1.84-2.37.21-2.3,1.83-2.38,3.19,0,4.79,0,1.93-.29,2-2,0-3.2,0-4.79.4-1.85,2.35-1.86,2.32.22,2.4,1.81,0,3.2,0,4.79.29,1.95,2,2,3.19,0,4.79.05,1.86.39,1.87,2.33-.21,2.33-1.79,2.41-2.88,0-4.31,0c-2.37,0-2.5.18-2.53,2.66,0,1.36,0,2.71,0,4.07C304.23,335.61,304,335.84,301.91,335.85Z"/><path class="cls-5" d="M342.68,404.37l6.65-6.79c1.84-1.88,1.83-2.06-.06-4q-3.28-3.4-6.56-6.85c.64-.7.37-1.64.63-2.44a3.72,3.72,0,0,1,1.56,1.06c2.86,2.86,5.75,5.71,8.58,8.61,1.46,1.47,1.45,1.85,0,3.33-2.84,2.89-5.72,5.73-8.59,8.6a3.7,3.7,0,0,1-1.57,1C343.09,406.08,343.33,405.11,342.68,404.37Z"/><path class="cls-1" d="M911,61.43c2.24,2.2,3.67,5,5.34,7.58,6.41,10,12.12,20.37,17.6,30.89A8.5,8.5,0,0,1,935,103c-7.42.12-14.83.48-22.24-.24-2.14-.2-4.31,0-6.47-.08s-2.62-.27-3.29-2.37a28.47,28.47,0,0,0-6.47-10.79,2.08,2.08,0,0,1-.45-2.77l14.27-24.66A4.13,4.13,0,0,1,911,61.43Z"/><path class="cls-1" d="M907,172.72c0-.15,0-.29,0-.43.18-.1.31,0,.27.13S907.08,172.62,907,172.72Z"/><path class="cls-3" d="M133,489.38c-1.74,1-3.54,1.85-5.21,2.94a2.84,2.84,0,0,1-3.45,0c-8.19-4.82-16.45-9.54-24.68-14.29Q71,461.51,42.32,445A4,4,0,0,1,40,440.89q.11-46.87,0-93.76a4.24,4.24,0,0,1,2.52-4.27C56.22,335,69.9,327.09,83.6,319.17c.69-.4,1.34-.86,2-1.29,3.69-2.08,7.39-4.14,11.06-6.25q13.71-7.89,27.39-15.85a3.33,3.33,0,0,1,3.88,0q41.09,23.81,82.24,47.47a3.39,3.39,0,0,1,1.93,3.4q-.08,47.37,0,94.75a3.54,3.54,0,0,1-2.15,3.51q-38.25,22-76.45,44.06A3.79,3.79,0,0,0,133,489.38Zm-7.2,1c1,.22,1.66-.44,2.4-.87q39.51-22.94,79-45.85a4.18,4.18,0,0,0,2.43-4.14c0-12,.06-24,.08-36q.07-27.93.08-55.87c0-.74.32-1.62-.51-2.19-.34-.22-.66-.46-1-.66Q168,321.56,127.76,298.27a3.36,3.36,0,0,0-3.91.14q-17.07,10-34.19,19.88l-45,26.14c-.94.55-2.06.93-2.16,2.29,0,.63-.1,1.27-.11,1.9q-.06,15.7-.1,31.41c0,20.05,0,40.11-.13,60.17a3.31,3.31,0,0,0,1.94,3.35q39.78,22.88,79.51,45.84C124.31,489.78,124.91,490.39,125.78,490.36Z"/><path class="cls-3" d="M80.77,119c0,6.8,0,13.59,0,20.39a3,3,0,0,1-1.73,3q-17.7,10.13-35.3,20.37a3,3,0,0,1-3.46,0Q22.73,152.54,5,142.43a3,3,0,0,1-1.77-3q.09-20.5,0-41a2.82,2.82,0,0,1,1.61-2.84q17.79-10.17,35.5-20.49a2.82,2.82,0,0,1,3.27,0q17.72,10.31,35.5,20.49a2.82,2.82,0,0,1,1.65,2.82C80.74,105.26,80.77,112.14,80.77,119ZM42,161.84c.56.49,1.06.11,1.53-.14.92-.5,1.81-1,2.71-1.55L77.6,142c1.2-.69,2.17-1.33,2.16-3.05,0-13.35,0-26.71,0-40.06,0-.67.25-1.47-.55-1.94q-18.1-10.51-36.19-21a2.1,2.1,0,0,0-2.41.17L5.69,96.39c-.59.34-1.38.57-1.28,1.52a2.67,2.67,0,0,0-.07.47q-.06,20.36-.14,40.71a2.61,2.61,0,0,0,1.52,2.64c5.08,2.85,10.1,5.8,15.14,8.72q9.43,5.45,18.88,10.86C40.41,161.69,41.05,162.65,42,161.84Z"/><path class="cls-3" d="M1130.15,132.94c-1.88,1.05-3.78,2.06-5.63,3.16a2.07,2.07,0,0,1-2.41.08q-15.12-8.79-30.29-17.5a2.14,2.14,0,0,1-1.17-2.12c0-11.59,0-23.17,0-34.76a2.66,2.66,0,0,1,1.74-2.53c5.82-3.33,11.62-6.7,17.43-10,.27-.16.52-.36.78-.54,3.67-2.08,7.38-4.12,11-6.26a2.78,2.78,0,0,1,3.23-.06q14.68,8.6,29.45,17a2.86,2.86,0,0,1,1.65,2.83q-.09,16.89,0,33.79a3,3,0,0,1-1.79,3c-7.42,4.22-14.81,8.52-22.2,12.8C1131.32,132.13,1130.74,132.55,1130.15,132.94Zm-6.66,2.44a2.64,2.64,0,0,0,1.53-.6l9.31-5.41c6.21-3.6,12.4-7.24,18.64-10.78a3.17,3.17,0,0,0,2-3.2c0-.63,0-1.27,0-1.91,0-7.18.06-14.36,0-21.53,0-3.43.2-6.86-.14-10.28.22-1.07-.65-1.34-1.31-1.73q-14.49-8.37-29-16.75a2.3,2.3,0,0,0-2.62,0c-9.7,5.68-19.43,11.31-29.14,17-.54.31-1.2.55-1.12,1.37a2.77,2.77,0,0,0-.09.47q-.06,17-.14,34a2.33,2.33,0,0,0,1.31,2.3q14.64,8.39,29.24,16.85C1122.43,135.38,1122.9,135.81,1123.49,135.38Z"/><path class="cls-4" d="M1210.79,241.34c-.64,0-1.17.53-1.84.4a4.72,4.72,0,0,1-.49-2.76c0-5.77,0-11.55,0-17.32q8.34-4.8,16.68-9.62a6.69,6.69,0,0,0,1-1c.66.54.47,1.31.47,2-.05,5.72-.13,11.45-.16,17.17a2.52,2.52,0,0,1-1.4,2.52,4.1,4.1,0,0,0-1.87,1.42l.06,0a41,41,0,0,0-9.18,5.32l.06,0a7,7,0,0,0-3.42,2Z"/><path class="cls-3" d="M1214.12,239.47a41,41,0,0,1,9.18-5.32c-.75,1-2,1.16-2.87,2C1218.21,237,1216.39,238.69,1214.12,239.47Z"/><path class="cls-3" d="M1210.76,241.39a7,7,0,0,1,3.42-2A9.15,9.15,0,0,1,1210.76,241.39Z"/><path class="cls-5" d="M855.94,172.19l-9.76,10.38c-.82.87-2.16,1.66-2.31,2.62-.19,1.23,1.4,2,2.25,2.87,2.93,3.16,6,6.24,8.92,9.37a3.87,3.87,0,0,1,1.19,1.44c-.23.63-.78.46-1.21.46-3.35,0-6.71,0-10.06,0a3.33,3.33,0,0,1-2.7-1.2c-3.63-3.93-7.28-7.85-11-11.7-.89-.93-.78-1.47.09-2.32,3.72-3.63,7.36-7.33,11-11,.44-.45.85-1,1.58-1Z"/><path class="cls-5" d="M397.4,396.76a4.55,4.55,0,0,1-9.1-.22,4.55,4.55,0,1,1,9.1.22Z"/><path class="cls-1" d="M548.45,233.11c.43-2.07-.52-3.5-2.09-4.7s-2.87-2.25-4.28-3.42a5.16,5.16,0,0,1-1.58-5.64c.49-2,2.07-2.95,4-3.36s3.75-.66,5.63-1c2.75-.5,3.63-1.54,3.71-4.34,0-.8,0-1.59,0-2.39a285.45,285.45,0,0,1,34.65-5.36c4.59-.42,9.16-1.07,13.79-.89a2.69,2.69,0,0,1,.46,1.81v8.34a3,3,0,0,1-.42,1.83c-.36-1.14-.7-2.29-1.07-3.42a3.72,3.72,0,0,0-3.75-2.76,9.14,9.14,0,0,0-3.52.58,3.81,3.81,0,0,0-2.75,3.79c0,1.91.09,3.82.08,5.73,0,3.71-1.63,5.61-5.28,6.16a10.29,10.29,0,0,0-4,1.5c-3.89,2.43-6.92,1.83-9.76-1.85-.44-.56-.85-1.16-1.3-1.71a5.87,5.87,0,0,0-9.73,1.38,4.62,4.62,0,0,0,.09,3.73c.37.88.83,1.72,1.24,2.59Z"/><path class="cls-2" d="M602.32,214a3,3,0,0,0,.42-1.83v-8.34a2.69,2.69,0,0,0-.46-1.81c.63-.57.45-1.33.46-2,0-1.6,0-3.2,0-4.8a10.73,10.73,0,0,1,9.82-10.56c1-.09,2.08-.1,3.12-.1H798.76c.73,0,1,.44.91,1.1s-.23.92-.84.93H616c-.88,0-1.76,0-2.64,0a8.82,8.82,0,0,0-8.6,8.85c0,2,0,4,0,6q0,8.38,0,16.77,0,31.75-.09,63.5a4.49,4.49,0,0,0,1.74,3.44,3.26,3.26,0,0,1,.65,4.17,3.75,3.75,0,0,1-4.1,1.8,3.42,3.42,0,0,1-1.8-5.9c1.53-1.4,1.73-2.86,1.73-4.67q-.06-31.14,0-62.3A16,16,0,0,0,602.32,214Z"/><path class="cls-5" d="M806.71,190.09a4.39,4.39,0,0,1-4.46-4.55A4.56,4.56,0,0,1,806.8,181a4.62,4.62,0,0,1,4.49,4.63A4.44,4.44,0,0,1,806.71,190.09Z"/><path class="cls-5" d="M793.79,389.42l-6,3c1.38,1.5,2.6,2.83,3.82,4.14.87.94,1.75,1.87,2.63,2.8.36.38.56.8.07,1.22-1,.82-1.65,2.22-2.89,2.35-1,.1-1.53-1.25-2.25-2-1.61-1.65-3.17-3.35-4.84-5.13-1.69,1.75-2.48,4-4,5.74-1-1.71-5.87-17.31-6.2-20l19.67,7.29Z"/><path class="cls-3" d="M648.31,289.45a23.91,23.91,0,0,1-5.6,2.64,14.69,14.69,0,0,1-11.42-26.71l1.39-.9a17.49,17.49,0,0,1,7.94-1.17c5.81.77,9.92,3.83,12,9.25s1.14,10.47-2.56,15C649.53,288.2,648.9,288.81,648.31,289.45Z"/><path class="cls-4" d="M548.45,233.11l14.14-3.4c2.69,3.82,2.25,6.85-1.5,9.4a14,14,0,0,0-3.24,3.13c-2.72,3.56-6,4.21-9.92,2.12-.92-.49-1.77-1.09-2.71-1.54a3.73,3.73,0,0,0-4.93,1.07,10.06,10.06,0,0,0-1.1,1.57c-1.73,2.95-1.38,4.75,1.33,6.81.45.34.9.67,1.34,1a6.2,6.2,0,0,1,2.52,6.11,22.12,22.12,0,0,1-4.88,10.79,6.77,6.77,0,0,1-5.29,2.42,19.52,19.52,0,0,1-3.57-.33,3,3,0,0,0-3.65,2,11.8,11.8,0,0,0-.94,4.91,2.74,2.74,0,0,0,2.31,2.93c1.22.38,2.5.61,3.67,1.09a6.83,6.83,0,0,1,4.6,6.89,14.39,14.39,0,0,1-.21,2.86,9,9,0,0,0,0,3.55c.64,3.64-.78,6-4.26,7.28-1,.38-2.17.58-3.21,1a3.86,3.86,0,0,0-2.88,4.19,10.25,10.25,0,0,0,.15,1.66c.69,3.92,2.18,5,6.16,4.39.24,0,.47-.1.71-.13,4.8-.66,6.76.68,7.91,5.4a10.08,10.08,0,0,0,1.44,3.27,14,14,0,0,1,1.41,2.5,6.37,6.37,0,0,1-1.18,7.13,20.36,20.36,0,0,1-2.92,2.48c-1.87,1.39-2.18,2.68-1.2,4.79a11.8,11.8,0,0,0,1.22,2c1.92,2.64,3.49,3,6.33,1.33,4.34-2.48,6.74-2.27,10.39,1a34,34,0,0,1,5.51,6,6.53,6.53,0,0,1,1.37,5.18,30.42,30.42,0,0,1-5.36-1.23,204.84,204.84,0,0,1-30.62-11.06,189.71,189.71,0,0,1-23.22-12.45,193.78,193.78,0,0,1-21.35-15.41c-6.14-5.22-12.23-10.51-17.46-16.71-1.33-1.58-2.78-3.07-4.14-4.64a2.81,2.81,0,0,1-.34-3.68,67,67,0,0,1,6-8.34,118.17,118.17,0,0,1,13.15-13.6,138.66,138.66,0,0,1,19.55-14.6,12.63,12.63,0,0,1,.52,1.33c.72,2.4,1.4,3,3.82,3.2a12,12,0,0,0,2.39-.07c2.21-.27,2.88-1,3.21-3.14s.7-4.25,1-6.38A3,3,0,0,1,511.8,247a12.05,12.05,0,0,1,4.92-1.74c1.13-.19,1.9.62,2.57,1.47,1.38,1.75,2.76,3.51,4.2,5.21,1.75,2.07,3.11,2.29,5.45,1,2.69-1.47,3.54-3.1,2.74-5.61-.61-1.9-1.38-3.75-2.1-5.6a4,4,0,0,1-.58-2.27L539.48,236c.82.31,1.63.64,2.45.94,2.31.85,3.73.42,5.15-1.6C547.58,234.63,548,233.86,548.45,233.11Z"/><path class="cls-5" d="M456.67,156.44a4.34,4.34,0,0,1-4.33-4.45,4.28,4.28,0,0,1,4.5-4.24,4.35,4.35,0,0,1,4.25,4.29A4.43,4.43,0,0,1,456.67,156.44Z"/><path class="cls-5" d="M430.93,152.08a4.36,4.36,0,0,1-4.41,4.36,4.29,4.29,0,0,1-4.26-4.48,4.22,4.22,0,0,1,4.26-4.22A4.31,4.31,0,0,1,430.93,152.08Z"/><path class="cls-5" d="M445.85,152a4.36,4.36,0,0,1-4.36,4.41,4.3,4.3,0,0,1-4.31-4.43,4.24,4.24,0,0,1,4.21-4.27A4.31,4.31,0,0,1,445.85,152Z"/><path class="cls-1" d="M506.72,161.21l-4.57,0A5.17,5.17,0,0,1,506.72,161.21Z"/><path class="cls-1" d="M507.72,161.65a.89.89,0,0,1-.86-.41A.7.7,0,0,1,507.72,161.65Z"/><path class="cls-1" d="M508.25,162.07l-.43-.35C508.09,161.69,508.24,161.8,508.25,162.07Z"/><path class="cls-3" d="M504.72,216c-3.65,0-6.08-2.44-6-5.95a5.8,5.8,0,0,1,6-6.05c3.66.06,6,2.42,5.92,6C510.56,213.83,508.4,216,504.72,216Z"/><path class="cls-1" d="M539.48,236,529,239.48c.5-2.64,2.44-4,4.63-5a2.51,2.51,0,0,1,2.09.06Z"/><path class="cls-5" d="M889.71,176.6c-2.66,2.27-5,4.83-7.49,7.3-1.2,1.21-1.21,1.47.07,2.71a102.68,102.68,0,0,1,7,7.75c-.08,1-.15,1.93-.23,2.9a3.5,3.5,0,0,1-1.71-1.26c-2.63-3.43-5.93-6.23-8.88-9.35-1.26-1.32-1.32-1.56-.11-2.73,3.26-3.15,6.58-6.25,9.89-9.35a3.33,3.33,0,0,1,.84-.43C889.34,175,889.07,175.89,889.71,176.6Z"/><path class="cls-1" d="M42.53,346.71c.1-1.35,1.22-1.73,2.16-2.28l45-26.14q17.1-9.93,34.19-19.88a3.36,3.36,0,0,1,3.91-.14Q168,321.6,208.28,344.81c.34.2.66.44,1,.66-.21.9-1,1.19-1.68,1.59l-9.53,5.54-24.21,14.14-29,16.85c-5.39,3.12-10.8,6.22-16.17,9.37-1.46.86-2.76,1.06-4.19,0-.56-.45-1.24-1.16-2.11-.41-2.64-1.5-5.29-3-7.92-4.5q-33.12-19.12-66.23-38.24A33.91,33.91,0,0,0,42.53,346.71Z"/><path class="cls-4" d="M122.38,392.5c.87-.75,1.55,0,2.11.41,1.43,1.11,2.73.91,4.19,0,5.37-3.15,10.78-6.25,16.17-9.37l29-16.85,24.21-14.14,9.53-5.54c.68-.4,1.47-.69,1.68-1.59.83.57.51,1.45.51,2.19q0,27.94-.08,55.87c0,12-.13,24-.08,36a4.18,4.18,0,0,1-2.43,4.14q-39.54,22.86-79,45.85c-.74.43-1.42,1.09-2.4.87,0-1.12,0-2.23,0-3.35,0-21.47,0-42.93.31-64.39,0-2.55-.3-5.12-.15-7.65.35-5.83,0-11.65.22-17.47.07-2.09-.38-3.59-2.59-4.18C123.11,393.21,122.76,392.78,122.38,392.5Z"/><path class="cls-5" d="M122.38,392.5c.38.28.73.71,1.16.82,2.21.59,2.66,2.09,2.59,4.18-.18,5.82.13,11.64-.22,17.47-.15,2.53.19,5.1.15,7.65-.31,21.46-.27,42.92-.31,64.39,0,1.12,0,2.23,0,3.35-.87,0-1.47-.58-2.14-1q-39.75-22.92-79.51-45.84a3.31,3.31,0,0,1-1.94-3.35c.1-20.06.09-40.12.13-60.17q0-15.7.1-31.41c0-.63.07-1.27.11-1.91a33.91,33.91,0,0,1,5.7,3.05q33.13,19.1,66.23,38.24C117.09,389.52,119.74,391,122.38,392.5Z"/><path class="cls-1" d="M4.41,97.91c-.1-1,.69-1.18,1.28-1.52l35-20.33a2.1,2.1,0,0,1,2.41-.17q18.08,10.55,36.19,21A2.15,2.15,0,0,1,78,98.28c-1.31.74-2.62,1.5-3.93,2.26-8.59,5-17.21,10-25.76,15-2.11,1.24-4.43,2.19-6.16,4-.59-.41-1.15-.86-1.76-1.22q-14-8.09-28-16.14C9.77,100.71,7.3,98.91,4.41,97.91Z"/><path class="cls-4" d="M42.15,119.57c1.73-1.82,4.05-2.77,6.16-4,8.55-5.06,17.17-10,25.76-15,1.31-.76,2.62-1.52,3.93-2.26a2.15,2.15,0,0,0,1.24-1.36c.8.47.55,1.27.55,1.94,0,13.35-.07,26.71,0,40.06,0,1.72-1,2.36-2.16,3.05L46.28,160.15c-.9.52-1.79,1-2.71,1.55-.47.25-1,.63-1.53.14a17.46,17.46,0,0,1-.19-1.9c0-5.49,0-11,0-16.49C42,135.49,41.68,127.53,42.15,119.57Z"/><path class="cls-5" d="M42.15,119.57c-.47,8-.18,15.92-.27,23.88-.06,5.5,0,11,0,16.49a17.46,17.46,0,0,0,.19,1.9c-1,.81-1.63-.15-2.3-.53q-9.45-5.4-18.88-10.86c-5-2.92-10.06-5.87-15.14-8.72a2.61,2.61,0,0,1-1.52-2.64q.1-20.36.14-40.71a2.67,2.67,0,0,1,.07-.47c2.89,1,5.36,2.8,8,4.3q14,8,28,16.14C41,118.71,41.56,119.16,42.15,119.57Z"/><path class="cls-1" d="M1091.65,81.5c-.08-.82.58-1.06,1.12-1.37,9.71-5.66,19.44-11.29,29.14-17a2.3,2.3,0,0,1,2.62,0q14.48,8.41,29,16.75c.66.39,1.53.66,1.31,1.73a5.86,5.86,0,0,0-3.3,1.25q-14.16,8.2-28.27,16.46c-7.6-4.37-15.18-8.77-22.81-13.1C1097.55,84.63,1094.83,82.64,1091.65,81.5Z"/><path class="cls-5" d="M1091.65,81.5c3.18,1.14,5.9,3.13,8.8,4.78,7.63,4.33,15.21,8.73,22.81,13.1,0,5.73.18,11.46,0,17.18a140.72,140.72,0,0,0,.24,18.82c-.59.43-1.06,0-1.52-.26q-14.61-8.43-29.24-16.85a2.33,2.33,0,0,1-1.31-2.3q.11-17,.14-34A2.77,2.77,0,0,1,1091.65,81.5Z"/><path class="cls-4" d="M1123.49,135.38a140.72,140.72,0,0,1-.24-18.82c.19-5.72,0-11.45,0-17.18q14.13-8.23,28.27-16.46a5.86,5.86,0,0,1,3.3-1.25c.34,3.42.13,6.85.14,10.28,0,7.17,0,14.35,0,21.53,0,.64-.06,1.28,0,1.91a3.17,3.17,0,0,1-2,3.2c-6.24,3.54-12.43,7.18-18.64,10.78l-9.31,5.41A2.64,2.64,0,0,1,1123.49,135.38Z"/></g></g></svg>